<svg xmlns="http://www.w3.org/2000/svg" width="96" height="445" fill="none"><path fill="#FF977A" d="M.6 136.409C4.68 123.1 9.058 109.34 14.587 96.181c1.375-3.277 4.628-5.354 8.18-5.304 6.255.05 10.508 6.43 8.081 12.184-5.254 12.459-9.332 25.543-13.234 38.202C14.285 152.12-2.752 147.342.6 136.434z"/><path fill="#766BF4" d="M30.072 73.04c8.156.075 13.41 8.63 9.782 15.936-2.026 4.078-3.878 7.856-4.778 9.882-.5 1.076-4.228 10.733-4.654 11.708l-23.941.351c2.051-5.279 9.281-21.89 13.409-31.297a11.03 11.03 0 0 1 10.182-6.605z"/><path fill="#443BB0" d="m5.932 113.09 23.289-.346a1.7 1.7 0 0 0 1.676-1.726l-.018-1.226a1.7 1.7 0 0 0-1.727-1.676l-23.288.346c-.94.014-1.69.787-1.676 1.726l.018 1.226a1.7 1.7 0 0 0 1.726 1.676m25.791 313.423-17.862-.925-3.578-3.803 4.779-15.336-.05-97.643-1.251-123.587h40.028L39.604 307.88l-7.78 101.747 3.227 9.857z"/><path stroke="#766BF4" stroke-linecap="round" stroke-miterlimit="10" stroke-width="1.251" d="M17.54 207.084c3.852-.8 7.204-3.677 8.58-7.355M20.24 421.26c3.453-5.454 6.88-10.908 10.333-16.337m-7.206-27.019c.275-6.579.55-13.159.85-19.714m-3.877-26.243h8.831m-4.427-2.201h5.329m-7.731-25.118c.075-11.959 0-23.917-.1-35.851"/><path fill="#443BB0" d="m64.796 426.513 17.837-.925 3.603-3.803-4.804-15.336.05-97.643 1.276-123.587H42.705l14.21 122.661 7.756 101.747-3.228 9.857z"/><path stroke="#766BF4" stroke-linecap="round" stroke-miterlimit="10" stroke-width="1.251" d="M78.956 207.084c-3.853-.8-7.205-3.677-8.581-7.355m5.879 221.531c-3.452-5.454-6.88-10.908-10.332-16.337m7.231-27.019c-.275-6.579-.55-13.159-.85-19.714m3.851-26.243h-8.806m4.402-2.201h-5.328m7.757-25.118c-.075-11.959 0-23.917.1-35.851M41.505 222.92h-5.153v-20.564m4.678 13.559v-13.984"/><path fill="#766BF4" d="M82.484 185.219H13.285v10.482h69.199z"/><path fill="#D4D0FF" d="M82.484 189.122H13.285v5.453h69.199z"/><path fill="#766BF4" d="M64.095 189.122h-2.402v6.229h2.402zm-10.406 0h-2.402v6.229h2.402zm-25.793 0h-2.402v6.229h2.402zm-9.883 0h-2.402v6.229h2.402z"/><path stroke="#443BB0" stroke-miterlimit="10" stroke-width="1.551" d="M34.65 195.651h7.73v-7.305h-7.73z"/><path fill="#443BB0" d="M92.568 438.447H65.173c-.815 0-1.476.661-1.476 1.476v3.002c0 .815.661 1.476 1.476 1.476h27.395c.815 0 1.476-.661 1.476-1.476v-3.002c0-.815-.661-1.476-1.476-1.476"/><path fill="#766BF4" d="m93.593 435.045-13.035-10.533h-14.16l-3.827 8.756c-1.727 3.953 1.175 8.406 5.478 8.406h23.217c3.502 0 5.078-4.428 2.352-6.629z"/><path stroke="#443BB0" stroke-linecap="round" stroke-miterlimit="10" stroke-width="1.251" d="M82.109 432.693H66.223"/><path fill="#443BB0" d="M31.423 438.447H4.03c-.815 0-1.476.661-1.476 1.476v3.002c0 .815.66 1.476 1.476 1.476h27.394c.815 0 1.476-.661 1.476-1.476v-3.002c0-.815-.66-1.476-1.476-1.476Z"/><path fill="#766BF4" d="m2.928 435.045 13.035-10.533h14.16l3.827 8.756c1.726 3.953-1.176 8.406-5.479 8.406H5.255c-3.502 0-5.079-4.428-2.352-6.629z"/><path stroke="#443BB0" stroke-linecap="round" stroke-miterlimit="10" stroke-width="1.251" d="M14.412 432.693h15.861"/><path fill="#443BB0" d="M63.946 26.732s-10.708-7.93-26.469-8.781c-15.76-.85-29.746 7.205-14.86 12.159l9.656 1.95s1.777-11.883 3.978-12.108c0 0 5.68.526 12.884 6.63 5.93 4.178 14.836.15 14.836.15z"/><path fill="#9990FF" d="m17.387 147.367 3.252-57.615c-.075-6.805 2.827-16.212 9.007-18.088l8.48-2.952 13.81.7 3.428.175 13.81.701 11.658 3.978A15.33 15.33 0 0 1 90.238 89.2l-8.305 61.444 2.801 33.798c.25 2.877-2.126 5.304-5.003 5.179l-30.321-1.526-3.428-.175-30.321-1.526c-2.877-.15-4.979-2.802-4.453-5.654l6.18-33.349v-.025Z"/><path fill="#9990FF" d="M74.703 114.044c-9.357 26.844-27.745 50.46-51.486 66.146z"/><path stroke="#443BB0" stroke-linecap="round" stroke-miterlimit="10" stroke-width="1.251" d="M74.703 114.044c-9.357 26.844-27.745 50.46-51.486 66.146"/><path fill="#9990FF" d="M43.48 155.273c-5.904 3.427-11.808 6.88-17.712 10.307z"/><path stroke="#443BB0" stroke-linecap="round" stroke-miterlimit="10" stroke-width="1.251" d="M43.48 155.273c-5.904 3.427-11.808 6.88-17.712 10.307"/><path fill="#FFCBB5" d="m39.178 76.542 10.957 8.306 11.634-7.18 1.726-34.25-22.591-1.15z"/><path fill="#FFAB94" d="M51.737 66.385c-4.078 2.627-8.231 3.027-12.159 1.776l1.301-25.868 22.591 1.126-.525 10.657c-2.977 4.729-6.53 9.282-11.208 12.309"/><path fill="#766BF4" d="m50.135 84.848 11.933-12.834.425-8.931 5.38 5.053-3.929 13.96-2.176-4.428zm0 0L39.427 70.863l.45-8.906-5.854 4.503 2.527 14.26 2.577-4.178z"/><path fill="#FFCBB5" d="M32.548 15.825s-3.403 15.185-2.552 27.369c.5 7.155 6.104 18.588 12.984 18.538 10.708-.075 20.014-9.181 22.716-12.734 3.202-4.228 2.827-7.28 5.454-13.61 2.276-5.478 1.851-12.533-.425-17.987-2.352-5.654-4.904-10.908-16.087-11.258-16.561-.525-22.09 9.682-22.09 9.682"/><path fill="#FFAB94" d="M64.92 25.932c-2.376 1.976-5.103 4.328-8.255 4.778-5.554.8-10.082-3.377-15.186-4.703-3.778-.976-7.38-.75-10.708.35.776-6.029 1.777-10.507 1.777-10.507s5.529-10.207 22.09-9.682c11.183.35 13.735 5.604 16.087 11.258.25.625.5 1.276.7 1.951-1.926 2.427-4.128 4.604-6.53 6.58z"/><path fill="#474E63" d="M36.501 13.823c-.3-.075-.6-.05-.9 0l-2.177-.1c1.976-3.252 8.03-9.732 20.815-9.331 11.182.35 15.96 7.23 18.312 12.909 2.277 5.479 2.027 11.683-.25 17.162-1.45 3.477-3.052 7.655-4.703 11.433l-3.002-.676s-3.303-10.607-.85-20.039c1.275-4.953 2.45-7.18.9-8.28-6.73-4.829-11.558.625-18.913.3-5.28-.225-5.104-2.477-9.232-3.303h-.025z"/><path fill="url(#a)" d="m43.48 34.963-4.603 8.556c-.25.45 0 1.026.526 1.15 1.35.276 2.802.551 2.802.551"/><path stroke="#FF977A" stroke-linecap="round" stroke-miterlimit="10" stroke-width="1.251" d="m43.48 34.963-4.603 8.556c-.25.45 0 1.026.526 1.15 1.35.276 2.802.551 2.802.551"/><path stroke="#474E63" stroke-linecap="round" stroke-miterlimit="10" stroke-width="1.426" d="M46.732 49.773c-2.502.576-5.104.726-7.63.4"/><path stroke="#FF977A" stroke-linecap="round" stroke-miterlimit="10" stroke-width="1.251" d="M44.656 53.376c-1.026.05-2.052.125-3.078.175m13.21-13.609-5.929-.276"/><path fill="#474E63" d="M49.535 35.939c.2-1.1 1.226-1.851 2.351-1.651 1.101.2 1.852 1.25 1.651 2.351a2.03 2.03 0 0 1-2.101 1.676c-.075 0-.175 0-.25-.024-.526-.1-1-.376-1.326-.826-.325-.45-.425-.976-.35-1.526z"/><path stroke="#474E63" stroke-linecap="round" stroke-miterlimit="10" stroke-width="1.426" d="M57.44 30.16c-1.776-.926-6.304-1.526-8.28-1.276"/><path stroke="#FF977A" stroke-linecap="round" stroke-miterlimit="10" stroke-width="1.251" d="m33.049 38.866 5.929.3"/><path fill="#474E63" d="M38.678 35.413c-.075-1.125-1.05-1.951-2.176-1.876a2.01 2.01 0 0 0-1.877 2.177c.075 1.025.926 1.85 1.926 1.9h.25a2.05 2.05 0 0 0 1.402-.7c.35-.4.525-.925.5-1.476z"/><path stroke="#474E63" stroke-linecap="round" stroke-miterlimit="10" stroke-width="1.426" d="M32.123 28.434c1.851-.75 5.354-1.051 7.005-.25"/><path fill="#FFCBB5" d="M65.495 35.789c1.176-1.626 3.227-2.777 5.179-2.277 1.751.425 3.002 2.102 3.502 3.853.6 2.101.275 4.453-.85 6.33s-3.052 3.252-5.179 3.727c-1.601.35-3.503.075-4.453-1.25-1.026-1.452-.375-3.353-.175-4.954.225-1.902.825-3.828 1.976-5.404z"/><path stroke="#FF977A" stroke-linecap="round" stroke-linejoin="round" stroke-width="1.251" d="M66.545 43.42c.525.35 1.276.25 1.701-.2.425-.451.425-1.227.05-1.702-.4-.475-1.15-.6-1.701-.275.3-2.552 1.951-4.854 4.853-4.553"/><path fill="#F1F1F1" d="M35.575 16.425c.2-3.752 3.377-6.654 7.155-6.454 3.753.2 6.655 3.377 6.455 7.155a6.8 6.8 0 0 1-2.477 4.928l-4.378-2.426-6.38-.55c-.3-.826-.425-1.702-.4-2.653z"/><path fill="#9990FF" d="m58.917 26.507 15.261.776s2.877-15.661-8.606-22.016c-14.76-8.581-33.449-4.253-35.525 13.284l13.134 1.126 9.132 5.179 6.604 1.676z"/><path fill="#fff" d="M30.447 18.551v-1c.35-7.18 6.455-12.684 13.635-12.334s12.684 6.455 12.334 13.635a13.04 13.04 0 0 1-2.127 6.48l-1.976-.501-9.132-5.179z"/><path fill="#766BF4" d="M74.478 24.08c-.075 1.952-.3 3.203-.3 3.203l-15.261-.776-6.605-1.676-2.002-1.976 24.168 1.2z"/><path stroke="#766BF4" stroke-linecap="round" stroke-miterlimit="10" stroke-width="1.001" d="M65.571 25.256c.576-7.105-1.751-22.165-10.432-24.117"/><path fill="#9990FF" d="M39.128 20.678c-2.827-1.15-6.13-2.101-9.757-2.402a43 43 0 0 1 8.08-.325c15.762.85 26.47 8.781 26.47 8.781s-8.907 4.028-14.836-.15c0 0-.3-.25-.776-.625-3.727-3.002-7.005-4.528-9.206-5.279z"/><path stroke="#9990FF" stroke-linecap="round" stroke-miterlimit="10" stroke-width="1.051" d="M38.002 19.102c-5.804-1.15-12.284-.926-17.863 2.001-1.701.9-3.302 2.352-3.502 4.353"/><path fill="#FFCBB5" d="m19.19 116.42-9.757 5.254-4.003 9.907 13.084-4.328z"/><path fill="#FFAB94" d="m51.688 117.946 15.586 14.836-13.285 2.251-6.88-11.758z"/><path fill="#FFAB94" d="M14.285 147.117c12.46-7.68 41.58-22.241 41.58-22.241l-4.253-6.98s-34.575 8.932-44.357 11.559c-4.778 2.401-9.18 9.006-6.379 13.559 3.152 5.154 8.631 6.505 13.434 4.103z"/><path fill="#FFCBB5" d="M56.266 150.494c-12.484-9.256-41.905-27.469-41.905-27.469l4.829-6.605s35.425 13.11 45.432 16.937c4.828 2.977 9.006 10.208 5.829 14.536-3.578 4.878-9.357 5.579-14.21 2.601z"/><path fill="#FFCBB5" d="M54.763 140.237c4.128-10.657 8.281-21.74 11.608-32.973 1.151-3.878 4.729-6.53 8.782-6.33 5.603.276 9.506 5.755 7.855 11.133-1.2 3.928-2.477 7.831-3.727 11.684-2.602 8.005-5.38 15.961-8.406 23.791-4.103 10.633-20.165 3.253-16.087-7.305z"/><path fill="#FFAB94" d="M81.157 117.996c-.626 1.927-1.251 3.828-1.876 5.754a562 562 0 0 1-2.853 8.481l-14.234-11.883a289 289 0 0 0 4.603-14.31l14.36 11.983z"/><path fill="#766BF4" d="M78.904 84.423c6.855.35 11.734 6.805 10.183 13.51-2.327 9.956-5.504 20.914-7.756 27.994l-18.388-15.336c.276-1.026 3.053-11.158 3.353-12.308.45-1.752.9-3.503 1.326-5.254 1.225-5.229 5.929-8.881 11.308-8.606z"/><path fill="#443BB0" d="m61.439 112.285 17.884 14.922a1.7 1.7 0 0 0 2.396-.217l.785-.941a1.7 1.7 0 0 0-.216-2.396l-17.884-14.922a1.7 1.7 0 0 0-2.396.217l-.786.941a1.7 1.7 0 0 0 .217 2.396M23.843 95.822l14.042.704.16-3.198-14.042-.704z"/><defs><linearGradient id="a" x1="39.882" x2="42.313" y1="58.44" y2="20.68" gradientUnits="userSpaceOnUse"><stop stop-color="#FFDEC9"/><stop offset=".29" stop-color="#FFD3BD"/><stop offset=".81" stop-color="#FFB6A0"/><stop offset="1" stop-color="#FFAB94"/></linearGradient></defs></svg>