<svg xmlns="http://www.w3.org/2000/svg" width="456" height="300" fill="none"><path fill="#766BF4" d="M394.357 190.218H53.98v36.51h340.377z"/><path fill="#000" d="M394.357 190.218H53.98v36.51h340.377z" opacity=".4"/><path fill="#474E63" d="M320.621 231.344H220.146v33.817h100.475z"/><path fill="#363C4F" d="M149.93 216.043v44.703h34.304l13.751-21.395h250.499v-23.308z"/><path fill="#766BF4" d="M147.79 74.501c-.078-1.497-1.254-2.65-2.65-2.588-13.555.598-77.93 3.766-91.166 10.597-10.13 5.228-21.23 24.764-29.058 37.917-5.61 9.427-18.004 30.362-20.51 41.063-2.124 9.063-3.402 27.873-3.256 37.218l3.54 49.406h58.34l5.841-16.318c3.811-10.645 13.338-17.67 23.962-17.67h57.971v-81.994z"/><path fill="#363C4F" d="M47.061 87.976c-8.029 8.226-16.07 22.247-22.143 32.45-5.194 8.728-16.202 27.32-19.797 38.521-.067.208-.121.405-.184.608 1.778-.529 4.511-1.606 5.351-3.41 1.278-2.744 2.92-12.126 23.197-47.565 6.179-10.798 12.191-17.119 13.576-20.604m70.761-3.656c-14.915.915-47.252 3.255-57.584 7.058-13.46 4.954-28.567 43.185-29.281 44.863l-10.185 27.964c-.245.791.303 1.606 1.08 1.606h26.313c.995 0 1.982-.19 2.914-.563l69.214-27.679c3.131-1.252 5.207-4.461 5.207-8.047V92.109c.001-4.484-3.507-8.045-7.678-7.789"/><path fill="#C9C9C9" d="M23.705 163.068s9.762-23.488 13.036-31.165c4.955-11.619 16.52-35.417 24.329-37.93 7.182-2.312 27.832-5.13 56.901-6.913a4 4 0 0 1 .276-.009c2.592 0 4.701 2.27 4.701 5.058v38.262c0 1.92-1.126 3.661-2.803 4.331l-51.135 6.774c-4.147.55-7.859 3.029-10.15 6.779l-8.862 14.499a4.4 4.4 0 0 1-1.625.314z"/><path fill="#363C4F" d="m67.155 141.904-17.409 20.778 9.62-68.997 2.405-.89-4.732 51.111c-.104 1.124.94 1.964 1.916 1.542z"/><path fill="#EBEBEB" d="M.009 203.5c-.063-.898.22-1.626.646-1.668l9.323-.926c.78-.077 1.48 1.472 1.573 3.327l.42 7.677c.068 1.232-.277 2.274-.79 2.368l-9.505 1.759c-.429.079-.838-.601-.901-1.507z"/><path fill="#363C4F" d="M67.157 239.361H0v28.901h67.157zm44.842 59.099c20.277-.836 36.084-19.159 35.305-40.924s-17.85-38.732-38.127-37.896c-20.278.837-36.084 19.159-35.305 40.925s17.849 38.732 38.127 37.895"/><path fill="#363C4F" d="M73.871 258.363c0 .034-.006.067-.006.102-.292 21.778 15.919 39.687 36.209 40.002 20.289.314 36.975-17.087 37.268-38.864.001-.035-.004-.068-.004-.102l-73.466-1.138Z"/><path fill="#FAFAFA" d="M84.807 258.633c-.205 15.291 11.176 27.865 25.42 28.085s25.96-11.995 26.165-27.286c.205-15.29-11.175-27.864-25.421-28.084-14.245-.221-25.958 11.996-26.164 27.285"/><path fill="#E0E0E0" d="M110.973 231.348c-14.245-.221-25.959 11.995-26.164 27.285l51.584.799c.206-15.289-11.175-27.864-25.42-28.084"/><path fill="#363C4F" d="M94.885 258.789c-.126 9.314 6.807 16.973 15.484 17.108 8.677.134 15.813-7.308 15.938-16.621.125-9.314-6.808-16.974-15.485-17.108s-15.813 7.307-15.938 16.621ZM39.33 148.602h-2.995c-3.38 0-6.118-2.94-6.118-6.567v-26.099c0-3.627 2.74-6.567 6.118-6.567h2.995c3.38 0 6.118 2.94 6.118 6.567v26.099c0 3.628-2.739 6.567-6.118 6.567"/><path fill="#363C4F" d="M23.915 172.861h-.766v-41.485c0-4.115 3.118-7.463 6.952-7.463h1.837v.823H30.1c-3.41 0-6.186 2.979-6.186 6.64z"/><path fill="#363C4F" d="m29.135 172.914-2.13-38.794c-.075-1.357.363-2.65 1.231-3.639.87-.99 2.045-1.535 3.312-1.535v.823c-1.054 0-2.032.453-2.754 1.276a4.2 4.2 0 0 0-1.025 3.028l2.13 38.793z"/><path fill="#363C4F" d="M31.55 169.123H21.215v12.843H31.55zm-3.82-24.373h-4.203v.822h4.204v-.822Z"/><path fill="#363C4F" d="M62.789 85.43s.308-.05.913-.13l2.692-.343 10.42-1.291 38.839-4.744c2.071-.239 4.18-.538 6.365-.745 1.101-.126 2.222.028 3.332.237 1.095.291 2.187.686 3.194 1.3a12.37 12.37 0 0 1 4.835 5.39c.539 1.153.946 2.405 1.113 3.712.131.647.115 1.315.161 1.978l.002 1.982.02 34.112.025 79.773v.209h-.195l-26.507.004-13.673.001c-2.3.011-4.607-.057-6.877.347-2.288.292-4.496 1.091-6.646 1.996-6.672 3.071-11.988 9.08-14.539 16.162-.288.897-.658 1.764-.84 2.693-.2.92-.494 1.818-.586 2.759l-.2 1.396-.097.698-.033.704-.066 1.406-.034.702-.004.088c.175-.185-.237.278-.204.229h-.557l-10.459-.002-39.976-.01h-.188v-.201l.013-35.775.007-16.724.005-8.045c.006-1.324-.01-2.632.014-3.943q.042-1.966.259-3.889a41 41 0 0 1 4.339-14.172l6.119-12.332 10.848-21.852 8.816-17.744 1.862-3.743c.306-.597.572-1.197.896-1.755.32-.559.67-1.081 1.031-1.574a22.4 22.4 0 0 1 4.648-4.635 22.5 22.5 0 0 1 7.949-3.712c1.934-.46 2.964-.517 2.964-.517s-.253.047-.751.123c-.498.08-1.237.219-2.198.46-1.902.503-4.758 1.444-7.894 3.755a22.4 22.4 0 0 0-4.598 4.626c-.357.49-.701 1.008-1.015 1.562-.318.55-.585 1.158-.888 1.753l-1.85 3.75-8.77 17.769-10.806 21.873c-1.959 3.964-3.993 8.08-6.1 12.34a40.7 40.7 0 0 0-4.287 14.064 43 43 0 0 0-.253 3.855c-.022 1.296-.005 2.615-.01 3.936l.005 8.044.007 16.725c.004 11.422.009 23.373.012 35.774l-.187-.2 39.977-.01 10.46-.002h.555c.053-.043-.37.391-.191.196l.004-.089.034-.712.067-1.427.034-.714.098-.709.203-1.416c.094-.955.39-1.867.594-2.801.185-.943.559-1.823.852-2.733 2.587-7.188 7.979-13.285 14.75-16.4 2.183-.92 4.423-1.728 6.746-2.026 2.308-.409 4.648-.341 6.936-.352l13.672.001 26.508.004-.195.209.025-79.773.02-34.113c-.003-1.33.048-2.645-.154-3.91-.161-1.277-.557-2.497-1.08-3.622a12.1 12.1 0 0 0-4.712-5.272c-.983-.603-2.049-.989-3.118-1.276-1.084-.204-2.179-.36-3.256-.237-2.164.2-4.289.496-6.355.73l-38.853 4.621-10.426 1.221-2.696.307a28 28 0 0 1-.916.096"/><path fill="#363C4F" d="M122.457 176.354c0-.023.21-.021.597-.095a4 4 0 0 0 1.578-.674 4.3 4.3 0 0 0 1.604-2.242c.172-.534.229-1.123.205-1.772a4.6 4.6 0 0 0-.465-1.914c-.598-1.23-1.909-2.26-3.455-2.259l-5.057.016-11.592.016c-.983 0-1.939.41-2.641 1.104a4.33 4.33 0 0 0-1.254 2.636c-.094 1.012.03 2.004.48 2.842a4.08 4.08 0 0 0 1.918 1.83c.79.377 1.643.323 2.495.327l2.456.01 4.408.026 6.383.066 1.735.04c.397.015.605.029.605.043s-.208.028-.604.042l-1.736.039-6.382.067-4.408.025-2.456.011c-.427-.006-.839.019-1.296-.012a4 4 0 0 1-1.336-.326 4.45 4.45 0 0 1-2.107-1.99c-.496-.905-.635-2.031-.535-3.085a4.74 4.74 0 0 1 1.372-2.898 4.15 4.15 0 0 1 2.903-1.216l11.592.016 5.062.023c1.674.016 3.073 1.145 3.695 2.469.316.667.464 1.378.469 2.049.016.651-.055 1.302-.247 1.853a4.4 4.4 0 0 1-1.728 2.302 3.8 3.8 0 0 1-1.648.62c-.4.048-.61.011-.61.011"/><path fill="#fff" d="M121.039 166.021c0 .116-2.943.21-6.572.21-3.631 0-6.572-.094-6.572-.21s2.941-.209 6.572-.209c3.629 0 6.572.093 6.572.209"/><path fill="#363C4F" d="m70.217 268.503-6.115-.479c1.6-23.569 3.945-37.67 7.17-43.107 6.196-10.447 12.352-12.333 19.18-13.586 6.346-1.162 12.751-.884 18.945-.616l1.52.065c12.786.535 39.567.059 39.836.055l.104 6.58c-.271.005-27.224.483-40.178-.058l-1.529-.066c-5.878-.254-11.955-.519-17.666.529-6.097 1.118-10.152 2.39-15.039 10.632-1.48 2.494-4.255 11.014-6.228 40.051"/><path fill="#766BF4" d="M455.999 0H154.018v215.817h301.981z"/><path fill="#363C4F" d="m452.38 211.546-.159-206.672.159.17-295.104.044h-.024l.199-.214-.016 206.672-.183-.197zc-1.644 0-121.493.08-295.128.196h-.183v-.197c-.006-63.282-.011-133.207-.016-206.671V4.66h.223l295.104.044h.158v.17c-.097 126.126-.158 205.286-.158 206.672"/><path fill="#000" d="m196.83 115.768 2.858 61.731 223.956-50.003-3.959-64.346z" opacity=".5"/><path fill="#766BF4" d="M241.484 58.66v53.914l127.631-30.135-.046-53.288-127.585 29.51Z"/><path fill="#000" d="M241.484 58.66v53.914l127.631-30.135-.046-53.288-127.585 29.51Z" opacity=".3"/><path fill="#fff" d="m260.197 72.065.287 11.868 13.961-3.404.058 2.764-13.96 3.404.326 12.814-2.808.685-.731-30.209 18.461-4.501.058 2.763zm36.585 8.532 7.122 8.422-3.077.75-6.794-8.024a16 16 0 0 1-1.376.378l-7.653 1.866.247 9.578-2.846.694-.731-30.209 9.692-2.363c6.115-1.491 10.252.67 11.345 5.83 1.257 5.943-1.008 10.532-5.929 13.078m3.143-12.097c-.804-3.798-3.731-5.211-8.193-4.123l-7.153 1.744.326 15.114 7.269-1.772c6.077-1.482 8.956-5.266 7.751-10.963m12.418-9.148.253 10.747 13.96-3.404.088 2.714-13.96 3.403.273 11.22 16.191-3.947.059 2.765-18.998 4.632-.732-30.21 18.46-4.5.06 2.763zm25.728-6.274.253 10.747 13.96-3.404.088 2.713-13.96 3.405.272 11.22 16.19-3.948.059 2.764-18.998 4.632-.732-30.209 18.46-4.5.06 2.763z"/><path fill="#FAFAFA" d="m383.746 58.66 45.203-11.367-1.783-5.161zM181.361 94.966l31.423-7.902-1.239-3.587zm107.592 81.274 45.203-11.367-1.782-5.161zm59.915-143.422c.026.115-24.127 6.308-53.938 13.831-29.822 7.526-54.01 13.53-54.035 13.416-.026-.115 24.122-6.307 53.943-13.833 29.812-7.523 54.005-13.53 54.03-13.414m-107.72 74.338c.022.116-10.35 2.46-23.163 5.236-12.817 2.776-23.223 4.932-23.245 4.816-.021-.116 10.348-2.46 23.166-5.237 12.813-2.775 23.22-4.931 23.242-4.815"/><path fill="#FAFAFA" d="M241.547 102.276c-.014 0-.028-.15-.041-.434l-.038-1.244-.066-4.576-.093-15.096-.145-15.096-.06-4.575-.002-1.245c.003-.284.012-.434.026-.435.013 0 .032.148.053.432l.077 1.242c.057 1.08.123 2.642.186 4.573.128 3.863.23 9.202.263 15.1.034 5.897.009 11.235-.024 15.1l-.06 4.575-.037 1.244c-.012.285-.025.435-.039.435"/><path fill="#fff" d="M216.692 137.769c-.184-3.715 2.626-6.858 6.998-7.79 4.049-.864 6.774.886 7.194 4.581l-2.905.62c-.253-2.126-1.812-3.065-4.188-2.558-2.67.569-4.333 2.317-4.228 4.444.086 1.738 1.106 2.58 3.125 2.634l3.533.094c3.502.071 5.357 1.613 5.508 4.669.192 3.895-2.648 7.014-7.166 7.978-4.313.92-7.303-.773-7.662-4.451l2.934-.626c.161 2.055 1.927 3.01 4.597 2.44 2.817-.6 4.54-2.331 4.433-4.488-.084-1.708-1.047-2.592-3.095-2.64l-3.531-.064c-3.502-.071-5.393-1.726-5.547-4.843m16.11-6.616-.133-2.696 15.638-3.336.133 2.696-6.367 1.358.938 18.967-2.875.614-.938-18.967zm18.867 15.142-2.993.639 6.675-23.316 3.198-.682 8.846 20.004-3.022.645-2.174-4.986-8.919 1.902zm5.145-18.266-2.78 9.738 7.189-1.534-3.704-8.354a8 8 0 0 1-.415-1.183c-.044.312-.165.852-.29 1.333m16.716 13.603-2.875.613-1.071-21.664 8.01-1.708c4.548-.97 7.368.911 7.568 4.956.148 2.996-1.212 5.466-3.81 6.899l4.765 8.218-3.198.683-4.384-7.725-5.428 1.158zm-.94-19.027.388 7.85 5.164-1.101c2.67-.57 4.123-2.364 4-4.851-.125-2.516-1.777-3.557-4.418-2.993zm14.424-3.017-.133-2.696 15.638-3.337.133 2.697-6.366 1.358.937 18.967-2.875.614-.938-18.967zm25.378-5.414-.133-2.696 15.638-3.336.133 2.696-6.367 1.359.938 18.966-2.875.614-.938-18.967zm37.697.164c.326 6.592-3.671 12.108-9.685 13.391-5.986 1.277-10.38-2.449-10.706-9.041-.324-6.562 3.642-12.101 9.627-13.378 6.015-1.283 10.439 2.436 10.764 9.028m-3.022.645c-.248-5.034-3.288-7.747-7.601-6.827-4.313.921-6.994 4.854-6.746 9.887.249 5.034 3.261 7.783 7.574 6.863s7.021-4.919 6.773-9.923m14.689 7.827-7.013 1.496-1.07-21.663 6.894-1.471c6.338-1.352 10.838 2.109 11.158 8.581.318 6.442-3.691 11.718-9.969 13.057m-1.261-18.897-3.814.813.803 16.24 3.931-.838c4.724-1.008 7.563-4.763 7.317-9.737-.249-5.033-3.396-7.511-8.237-6.478m15.797 15.796-2.993.639 6.675-23.316 3.198-.682 8.846 20.005-3.022.644-2.174-4.986-8.919 1.902zm5.146-18.266-2.781 9.738 7.189-1.534-3.704-8.354a8 8 0 0 1-.415-1.183c-.043.312-.165.853-.289 1.333m16.301 4.789-7.823-11.321 3.227-.689 5.152 7.652c.319.447.515.829.775 1.288.238-.595.287-.788.633-1.588l4.267-9.661 3.139-.67-6.494 14.375.435 8.81-2.875.613z"/><path fill="#474E63" d="M111.061 102.199c.008.013-.088.099-.279.252l-.845.653c-.738.561-1.816 1.357-3.154 2.329a518 518 0 0 1-10.553 7.448 512 512 0 0 1-10.714 7.182 195 195 0 0 1-3.29 2.103l-.905.551c-.21.122-.323.181-.33.167-.007-.012.092-.095.288-.241l.867-.619 3.221-2.218 10.647-7.286 10.613-7.34 3.224-2.215.886-.586c.205-.13.316-.192.324-.18"/><path fill="#363C4F" d="M97.99 105.916c.007.012-.09.099-.28.253l-.845.653a201 201 0 0 1-3.154 2.329 513 513 0 0 1-10.553 7.447 509 509 0 0 1-10.714 7.183 198 198 0 0 1-3.29 2.103l-.905.551c-.21.122-.323.18-.33.167s.091-.095.288-.241c.236-.17.522-.374.867-.62l3.22-2.219 10.648-7.286 10.612-7.339 3.223-2.215.886-.587c.207-.129.319-.191.326-.179Z"/><path fill="#FAFAFA" d="M33.462 129.866c-.027.006-.11-.251-.235-.724a47 47 0 0 1-.48-2.017c-.365-1.709-.83-4.115-.81-6.827.017-2.714.666-5.139 1.46-6.698.39-.784.782-1.371 1.085-1.745.3-.375.492-.556.51-.538.06.051-.647.85-1.344 2.418-.709 1.555-1.294 3.915-1.313 6.568-.019 2.654.394 5.042.687 6.761.305 1.721.498 2.789.44 2.802m-31.19 58.326c-.028-.001-.04-.328-.042-.92-.001-.591.015-1.446.047-2.503.064-2.112.205-5.028.44-8.243.237-3.216.523-6.121.768-8.218.123-1.049.232-1.895.32-2.479.086-.585.148-.906.175-.902.028.003.019.331-.02.92l-.194 2.493-.65 8.219-.557 8.226-.173 2.495c-.047.588-.087.913-.114.912m83.978 15.975c.015.086-1.474.314-3.77 1.107-1.148.388-2.481.965-3.912 1.707a32 32 0 0 0-4.417 2.877 33 33 0 0 0-3.88 3.663c-1.088 1.244-2 2.436-2.688 3.497-1.391 2.113-2.04 3.57-2.111 3.529-.025-.013.128-.38.427-1.036.144-.331.333-.728.586-1.17.248-.444.51-.966.866-1.496.665-1.094 1.564-2.321 2.653-3.596a31.3 31.3 0 0 1 3.911-3.737 30 30 0 0 1 4.492-2.887c1.46-.733 2.818-1.286 3.99-1.64.578-.206 1.12-.319 1.59-.44.467-.127.878-.202 1.215-.251.672-.11 1.044-.156 1.048-.127m75.485-49.672q-.01-.001-.022-.354l-.023-1.038-.05-3.99-.192-14.676-.807-48.415c-.323-18.913-.587-36.034-.69-48.428-.055-6.196-.071-11.212-.065-14.677l.025-3.991.017-1.038q.009-.351.019-.353.01.002.022.353l.023 1.038.05 3.99.192 14.675.807 48.423c.323 18.907.587 36.026.69 48.42.055 6.197.071 11.212.065 14.678l-.025 3.991-.017 1.038q-.008.353-.019.354"/><path fill="#363C4F" d="M383.486 298.427c20.276-.869 36.056-19.216 35.246-40.979-.809-21.764-17.902-38.702-38.178-37.833s-36.056 19.216-35.246 40.98 17.902 38.701 38.178 37.832"/><path fill="#363C4F" d="M345.278 258.363c0 .034-.006.067-.007.102-.292 21.778 15.919 39.687 36.209 40.002 20.289.314 36.975-17.087 37.268-38.864.001-.035-.004-.068-.003-.102z"/><path fill="#FAFAFA" d="M356.213 258.633c-.205 15.291 11.176 27.864 25.42 28.085 14.245.22 25.96-11.995 26.165-27.286.206-15.29-11.175-27.864-25.42-28.085-14.246-.22-25.959 11.997-26.165 27.286"/><path fill="#E0E0E0" d="M382.377 231.347c-14.245-.22-25.959 11.996-26.164 27.286l51.585.799c.205-15.29-11.176-27.864-25.421-28.085"/><path fill="#363C4F" d="M366.304 258.789c-.125 9.314 6.808 16.973 15.485 17.108 8.677.134 15.813-7.308 15.938-16.621.125-9.314-6.808-16.974-15.485-17.108s-15.813 7.307-15.938 16.621"/><path fill="#474E63" d="M333.71 269.836s-5.598-55.93 48.407-55.93c49.831 0 48.719 48.115 48.249 55.556h-7.814s3.982-47.417-40.435-47.417c-44.415 0-40.546 48.38-40.546 48.38s-3.281-.186-7.861-.589"/><path fill="#FAFAFA" d="M362.639 219.684c.003.015-.143.071-.424.166-.279.101-.699.212-1.227.407a36 36 0 0 0-4.389 1.839c-3.604 1.763-8.341 5.021-12.251 10.021-3.915 5.001-6.084 10.572-7.079 14.688a43 43 0 0 0-.929 4.958c-.088.592-.117 1.056-.161 1.368-.039.312-.066.477-.079.476s-.013-.167-.001-.483c.018-.315.023-.783.087-1.38.098-1.197.332-2.924.81-5.014.932-4.167 3.085-9.825 7.046-14.887 3.958-5.061 8.779-8.315 12.44-10.021 1.836-.867 3.38-1.412 4.462-1.723.536-.172.965-.257 1.251-.331.288-.07.44-.098.444-.084"/></svg>