<svg xmlns="http://www.w3.org/2000/svg" width="700" height="686" fill="none"><path fill="#9990FF" d="M69.205 147.778c.286 1.067 1.41 1.693 2.51 1.398 1.1-.294 1.761-1.398 1.475-2.466s-1.41-1.692-2.51-1.397c-1.1.293-1.761 1.397-1.475 2.465m2.07 7.727c.287 1.068 1.41 1.694 2.51 1.399 1.101-.295 1.762-1.399 1.476-2.467-.286-1.067-1.41-1.692-2.51-1.397-1.101.294-1.761 1.398-1.476 2.465m2.071 7.728c.286 1.067 1.41 1.693 2.51 1.398s1.761-1.399 1.475-2.466-1.41-1.692-2.51-1.397c-1.1.293-1.761 1.397-1.475 2.465m2.071 7.727c.286 1.068 1.41 1.694 2.51 1.399s1.76-1.399 1.475-2.467c-.286-1.067-1.41-1.692-2.51-1.397-1.101.293-1.761 1.398-1.475 2.465m2.07 7.727c.286 1.068 1.41 1.694 2.51 1.399 1.101-.295 1.761-1.399 1.475-2.466s-1.41-1.692-2.51-1.398-1.76 1.398-1.475 2.465m2.071 7.728c.286 1.067 1.41 1.693 2.51 1.399s1.76-1.399 1.475-2.467c-.286-1.067-1.41-1.692-2.51-1.397-1.101.293-1.761 1.397-1.475 2.465m2.07 7.727c.286 1.068 1.41 1.694 2.51 1.399 1.101-.295 1.761-1.399 1.475-2.467-.286-1.067-1.41-1.692-2.51-1.397s-1.76 1.398-1.475 2.465m2.071 7.728c.286 1.067 1.41 1.693 2.51 1.398s1.761-1.399 1.475-2.466-1.41-1.692-2.51-1.397c-1.1.293-1.761 1.397-1.475 2.465m2.071 7.727c.285 1.068 1.41 1.694 2.51 1.399s1.76-1.399 1.474-2.467c-.286-1.067-1.41-1.692-2.51-1.397-1.1.293-1.76 1.398-1.475 2.465Zm-8.716-63.922c.286 1.067 1.41 1.693 2.51 1.398 1.1-.294 1.76-1.399 1.475-2.466-.286-1.068-1.41-1.692-2.51-1.397-1.1.293-1.761 1.397-1.475 2.465m2.07 7.727c.286 1.068 1.41 1.694 2.51 1.399 1.101-.295 1.761-1.399 1.475-2.467-.286-1.067-1.41-1.692-2.51-1.397s-1.76 1.398-1.475 2.465m2.071 7.728c.286 1.067 1.41 1.693 2.51 1.398s1.761-1.399 1.475-2.466-1.41-1.692-2.51-1.397c-1.1.293-1.761 1.397-1.475 2.465m2.07 7.727c.287 1.068 1.41 1.693 2.51 1.399 1.101-.295 1.762-1.399 1.476-2.467-.287-1.067-1.41-1.692-2.51-1.397-1.101.293-1.762 1.397-1.476 2.465m2.071 7.727c.286 1.068 1.41 1.694 2.51 1.399s1.761-1.399 1.475-2.466-1.41-1.693-2.51-1.398c-1.1.294-1.761 1.398-1.475 2.465m2.07 7.728c.287 1.067 1.41 1.693 2.51 1.398 1.101-.294 1.762-1.398 1.476-2.466s-1.41-1.692-2.51-1.397c-1.101.293-1.761 1.397-1.476 2.465m2.071 7.727c.286 1.068 1.41 1.694 2.51 1.399s1.761-1.399 1.475-2.467c-.286-1.067-1.41-1.692-2.51-1.397s-1.761 1.398-1.475 2.465m2.071 7.728c.286 1.067 1.41 1.693 2.51 1.398s1.76-1.399 1.475-2.466c-.286-1.068-1.41-1.692-2.51-1.397-1.101.293-1.761 1.397-1.475 2.465m2.07 7.727c.286 1.068 1.41 1.693 2.51 1.399 1.101-.295 1.761-1.399 1.475-2.467-.286-1.067-1.41-1.692-2.51-1.397-1.1.293-1.76 1.397-1.475 2.465m-8.715-63.922c.286 1.067 1.41 1.693 2.51 1.398s1.76-1.399 1.475-2.466c-.286-1.068-1.41-1.692-2.51-1.397-1.101.293-1.761 1.397-1.475 2.465m2.07 7.727c.286 1.068 1.41 1.694 2.51 1.399 1.101-.295 1.761-1.399 1.475-2.467-.286-1.067-1.41-1.692-2.51-1.397-1.1.293-1.76 1.398-1.475 2.465m2.071 7.727c.286 1.068 1.41 1.694 2.51 1.399s1.76-1.399 1.475-2.466c-.286-1.068-1.41-1.692-2.51-1.398s-1.761 1.398-1.475 2.465m2.07 7.728c.286 1.067 1.41 1.693 2.51 1.399 1.101-.295 1.761-1.399 1.475-2.467-.286-1.067-1.41-1.692-2.51-1.397-1.1.293-1.76 1.397-1.475 2.465m2.071 7.727c.286 1.068 1.41 1.694 2.51 1.399s1.761-1.399 1.475-2.467c-.286-1.067-1.41-1.692-2.51-1.397s-1.761 1.398-1.475 2.465m2.07 7.728c.286 1.067 1.41 1.693 2.51 1.398 1.101-.295 1.762-1.399 1.475-2.466-.285-1.068-1.41-1.692-2.51-1.397-1.1.293-1.76 1.397-1.475 2.465m2.071 7.727c.286 1.068 1.41 1.694 2.51 1.399 1.101-.295 1.761-1.399 1.475-2.467-.286-1.067-1.41-1.692-2.51-1.397-1.1.293-1.761 1.398-1.475 2.465m2.071 7.728c.285 1.067 1.409 1.693 2.51 1.398s1.761-1.399 1.475-2.466-1.41-1.692-2.51-1.398c-1.101.294-1.762 1.398-1.475 2.466m2.07 7.727c.286 1.067 1.41 1.693 2.51 1.399 1.101-.295 1.761-1.399 1.475-2.467-.286-1.067-1.409-1.692-2.51-1.397-1.101.293-1.761 1.397-1.475 2.465m-8.716-63.922c.286 1.067 1.41 1.693 2.51 1.398 1.101-.295 1.762-1.399 1.476-2.466s-1.41-1.692-2.51-1.397c-1.101.293-1.762 1.397-1.476 2.465m2.071 7.727c.286 1.068 1.41 1.693 2.51 1.399s1.761-1.399 1.475-2.467c-.286-1.067-1.41-1.692-2.51-1.397-1.1.293-1.761 1.397-1.475 2.465m2.07 7.727c.287 1.068 1.41 1.694 2.51 1.399 1.101-.295 1.762-1.399 1.476-2.466s-1.41-1.693-2.51-1.398c-1.101.294-1.761 1.398-1.475 2.465Zm2.071 7.728c.286 1.067 1.41 1.693 2.51 1.398 1.101-.294 1.761-1.398 1.475-2.466s-1.409-1.692-2.51-1.397c-1.1.293-1.761 1.397-1.475 2.465m2.071 7.727c.286 1.068 1.41 1.694 2.51 1.399s1.761-1.399 1.475-2.467c-.286-1.067-1.41-1.692-2.51-1.397-1.101.294-1.761 1.398-1.475 2.465m2.07 7.728c.286 1.067 1.41 1.693 2.511 1.398 1.1-.295 1.76-1.399 1.474-2.466s-1.409-1.692-2.51-1.397c-1.1.293-1.761 1.397-1.475 2.465m2.071 7.727c.286 1.068 1.41 1.694 2.51 1.399 1.101-.295 1.761-1.399 1.475-2.467-.286-1.067-1.41-1.692-2.51-1.397-1.101.293-1.761 1.397-1.475 2.465m2.07 7.727c.286 1.068 1.41 1.694 2.511 1.399 1.1-.295 1.76-1.399 1.474-2.466s-1.409-1.693-2.51-1.398c-1.1.294-1.761 1.398-1.475 2.465m2.071 7.728c.286 1.067 1.41 1.693 2.51 1.398 1.101-.294 1.761-1.398 1.475-2.466s-1.41-1.692-2.51-1.397c-1.101.293-1.761 1.397-1.475 2.465" opacity=".1"/><path fill="#777C81" d="M0 586.999C0 588.105.924 589 2.063 589s2.063-.895 2.063-2.001S3.202 585 2.063 585c-1.14-.001-2.063.894-2.063 1.999m0 8C0 596.105.924 597 2.063 597s2.063-.895 2.063-2.001S3.202 593 2.063 593c-1.14-.001-2.063.894-2.063 1.999m0 8C0 604.105.924 605 2.063 605s2.063-.895 2.063-2.001S3.202 601 2.063 601c-1.14-.001-2.063.894-2.063 1.999m0 8C0 612.105.924 613 2.063 613s2.063-.895 2.063-2.001S3.202 609 2.063 609c-1.14-.001-2.063.894-2.063 1.999m0 8C0 620.105.924 621 2.063 621s2.063-.895 2.063-2.001S3.202 617 2.063 617c-1.14-.001-2.063.894-2.063 1.999m0 8C0 628.105.924 629 2.063 629s2.063-.895 2.063-2.001S3.202 625 2.063 625c-1.14-.001-2.063.894-2.063 1.999m0 8C0 636.105.924 637 2.063 637s2.063-.895 2.063-2.001S3.202 633 2.063 633c-1.14-.001-2.063.894-2.063 1.999m0 8C0 644.105.924 645 2.063 645s2.063-.895 2.063-2.001S3.202 641 2.063 641c-1.14-.001-2.063.894-2.063 1.999m0 8C0 652.105.924 653 2.063 653s2.063-.895 2.063-2.001S3.202 649 2.063 649c-1.14-.001-2.063.894-2.063 1.999m8.126-64c0 1.106.923 2.001 2.063 2.001 1.139 0 2.062-.895 2.062-2.001S11.328 585 10.189 585c-1.14-.001-2.063.894-2.063 1.999m0 8c0 1.106.923 2.001 2.063 2.001 1.139 0 2.062-.895 2.062-2.001S11.328 593 10.189 593c-1.14-.001-2.063.894-2.063 1.999m0 8c0 1.106.923 2.001 2.063 2.001 1.139 0 2.062-.895 2.062-2.001S11.328 601 10.189 601c-1.14-.001-2.063.894-2.063 1.999m0 8c0 1.106.923 2.001 2.063 2.001 1.139 0 2.062-.895 2.062-2.001S11.328 609 10.189 609c-1.14-.001-2.063.894-2.063 1.999m0 8c0 1.106.923 2.001 2.063 2.001 1.139 0 2.062-.895 2.062-2.001S11.328 617 10.189 617c-1.14-.001-2.063.894-2.063 1.999m0 8c0 1.106.923 2.001 2.063 2.001 1.139 0 2.062-.895 2.062-2.001S11.328 625 10.189 625c-1.14-.001-2.063.894-2.063 1.999m0 8c0 1.106.923 2.001 2.063 2.001 1.139 0 2.062-.895 2.062-2.001S11.328 633 10.189 633c-1.14-.001-2.063.894-2.063 1.999m0 8c0 1.106.923 2.001 2.063 2.001 1.139 0 2.062-.895 2.062-2.001S11.328 641 10.189 641c-1.14-.001-2.063.894-2.063 1.999m0 8c0 1.106.923 2.001 2.063 2.001 1.139 0 2.062-.895 2.062-2.001S11.328 649 10.189 649c-1.14-.001-2.063.894-2.063 1.999m8.125-64c0 1.106.924 2.001 2.063 2.001s2.063-.895 2.063-2.001S19.453 585 18.314 585c-1.139-.001-2.063.894-2.063 1.999m0 8c0 1.106.924 2.001 2.063 2.001s2.063-.895 2.063-2.001S19.453 593 18.314 593c-1.139-.001-2.063.894-2.063 1.999m0 8c0 1.106.924 2.001 2.063 2.001s2.063-.895 2.063-2.001S19.453 601 18.314 601c-1.139-.001-2.063.894-2.063 1.999m0 8c0 1.106.924 2.001 2.063 2.001s2.063-.895 2.063-2.001S19.453 609 18.314 609c-1.139-.001-2.063.894-2.063 1.999m0 8c0 1.106.924 2.001 2.063 2.001s2.063-.895 2.063-2.001S19.453 617 18.314 617c-1.139-.001-2.063.894-2.063 1.999m0 8c0 1.106.924 2.001 2.063 2.001s2.063-.895 2.063-2.001S19.453 625 18.314 625c-1.139-.001-2.063.894-2.063 1.999m0 8c0 1.106.924 2.001 2.063 2.001s2.063-.895 2.063-2.001S19.453 633 18.314 633c-1.139-.001-2.063.894-2.063 1.999m0 8c0 1.106.924 2.001 2.063 2.001s2.063-.895 2.063-2.001S19.453 641 18.314 641c-1.139-.001-2.063.894-2.063 1.999m0 8c0 1.106.924 2.001 2.063 2.001s2.063-.895 2.063-2.001S19.453 649 18.314 649c-1.139-.001-2.063.894-2.063 1.999m8.126-64c0 1.106.924 2.001 2.063 2.001s2.063-.895 2.063-2.001S27.579 585 26.44 585c-1.14-.001-2.063.894-2.063 1.999m0 8c0 1.106.924 2.001 2.063 2.001s2.063-.895 2.063-2.001S27.579 593 26.44 593c-1.14-.001-2.063.894-2.063 1.999m0 8c0 1.106.924 2.001 2.063 2.001s2.063-.895 2.063-2.001S27.579 601 26.44 601c-1.14-.001-2.063.894-2.063 1.999m0 8c0 1.106.924 2.001 2.063 2.001s2.063-.895 2.063-2.001S27.579 609 26.44 609c-1.14-.001-2.063.894-2.063 1.999m0 8c0 1.106.924 2.001 2.063 2.001s2.063-.895 2.063-2.001S27.579 617 26.44 617c-1.14-.001-2.063.894-2.063 1.999m0 8c0 1.106.924 2.001 2.063 2.001s2.063-.895 2.063-2.001S27.579 625 26.44 625c-1.14-.001-2.063.894-2.063 1.999m0 8c0 1.106.924 2.001 2.063 2.001s2.063-.895 2.063-2.001S27.579 633 26.44 633c-1.14-.001-2.063.894-2.063 1.999m0 8c0 1.106.924 2.001 2.063 2.001s2.063-.895 2.063-2.001S27.579 641 26.44 641c-1.14-.001-2.063.894-2.063 1.999m0 8c0 1.106.924 2.001 2.063 2.001s2.063-.895 2.063-2.001S27.579 649 26.44 649c-1.14-.001-2.063.894-2.063 1.999m515.623-312c0 1.105.924 2.001 2.063 2.001s2.063-.896 2.063-2.001-.924-1.999-2.063-1.999c-1.139-.001-2.063.894-2.063 1.999m0 8c0 1.105.924 2.001 2.063 2.001s2.063-.896 2.063-2.001-.924-1.999-2.063-1.999c-1.139-.001-2.063.894-2.063 1.999m0 8c0 1.105.924 2.001 2.063 2.001s2.063-.896 2.063-2.001-.924-1.999-2.063-1.999c-1.139-.001-2.063.894-2.063 1.999m0 8c0 1.105.924 2.001 2.063 2.001s2.063-.896 2.063-2.001-.924-1.999-2.063-1.999c-1.139-.001-2.063.894-2.063 1.999m0 8c0 1.105.924 2.001 2.063 2.001s2.063-.896 2.063-2.001-.924-1.999-2.063-1.999c-1.139-.001-2.063.894-2.063 1.999m0 8c0 1.105.924 2.001 2.063 2.001s2.063-.896 2.063-2.001-.924-1.999-2.063-1.999c-1.139-.001-2.063.894-2.063 1.999m0 8c0 1.105.924 2.001 2.063 2.001s2.063-.896 2.063-2.001-.924-1.999-2.063-1.999c-1.139-.001-2.063.894-2.063 1.999m0 8c0 1.105.924 2.001 2.063 2.001s2.063-.896 2.063-2.001-.924-1.999-2.063-1.999c-1.139-.001-2.063.894-2.063 1.999m0 8c0 1.105.924 2.001 2.063 2.001s2.063-.896 2.063-2.001-.924-1.999-2.063-1.999c-1.139-.001-2.063.894-2.063 1.999m8.126-64c0 1.105.923 2.001 2.063 2.001 1.139 0 2.062-.896 2.062-2.001s-.923-1.999-2.062-1.999c-1.14-.001-2.063.894-2.063 1.999m0 8c0 1.105.923 2.001 2.063 2.001 1.139 0 2.062-.896 2.062-2.001s-.923-1.999-2.062-1.999c-1.14-.001-2.063.894-2.063 1.999m0 8c0 1.105.923 2.001 2.063 2.001 1.139 0 2.062-.896 2.062-2.001s-.923-1.999-2.062-1.999c-1.14-.001-2.063.894-2.063 1.999m0 8c0 1.105.923 2.001 2.063 2.001 1.139 0 2.062-.896 2.062-2.001s-.923-1.999-2.062-1.999c-1.14-.001-2.063.894-2.063 1.999m0 8c0 1.105.923 2.001 2.063 2.001 1.139 0 2.062-.896 2.062-2.001s-.923-1.999-2.062-1.999c-1.14-.001-2.063.894-2.063 1.999m0 8c0 1.105.923 2.001 2.063 2.001 1.139 0 2.062-.896 2.062-2.001s-.923-1.999-2.062-1.999c-1.14-.001-2.063.894-2.063 1.999m0 8c0 1.105.923 2.001 2.063 2.001 1.139 0 2.062-.896 2.062-2.001s-.923-1.999-2.062-1.999c-1.14-.001-2.063.894-2.063 1.999m0 8c0 1.105.923 2.001 2.063 2.001 1.139 0 2.062-.896 2.062-2.001s-.923-1.999-2.062-1.999c-1.14-.001-2.063.894-2.063 1.999m0 8c0 1.105.923 2.001 2.063 2.001 1.139 0 2.062-.896 2.062-2.001s-.923-1.999-2.062-1.999c-1.14-.001-2.063.894-2.063 1.999m8.125-64c0 1.105.924 2.001 2.063 2.001s2.063-.896 2.063-2.001-.923-1.999-2.063-1.999c-1.139-.001-2.063.894-2.063 1.999m0 8c0 1.105.924 2.001 2.063 2.001s2.063-.896 2.063-2.001-.923-1.999-2.063-1.999c-1.139-.001-2.063.894-2.063 1.999m0 8c0 1.105.924 2.001 2.063 2.001s2.063-.896 2.063-2.001-.923-1.999-2.063-1.999c-1.139-.001-2.063.894-2.063 1.999m0 8c0 1.105.924 2.001 2.063 2.001s2.063-.896 2.063-2.001-.923-1.999-2.063-1.999c-1.139-.001-2.063.894-2.063 1.999m0 8c0 1.105.924 2.001 2.063 2.001s2.063-.896 2.063-2.001-.923-1.999-2.063-1.999c-1.139-.001-2.063.894-2.063 1.999m0 8c0 1.105.924 2.001 2.063 2.001s2.063-.896 2.063-2.001-.923-1.999-2.063-1.999c-1.139-.001-2.063.894-2.063 1.999m0 8c0 1.105.924 2.001 2.063 2.001s2.063-.896 2.063-2.001-.923-1.999-2.063-1.999c-1.139-.001-2.063.894-2.063 1.999m0 8c0 1.105.924 2.001 2.063 2.001s2.063-.896 2.063-2.001-.923-1.999-2.063-1.999c-1.139-.001-2.063.894-2.063 1.999m0 8c0 1.105.924 2.001 2.063 2.001s2.063-.896 2.063-2.001-.923-1.999-2.063-1.999c-1.139-.001-2.063.894-2.063 1.999m8.126-64c0 1.105.924 2.001 2.063 2.001s2.063-.896 2.063-2.001-.924-1.999-2.063-1.999c-1.139-.001-2.063.894-2.063 1.999m0 8c0 1.105.924 2.001 2.063 2.001s2.063-.896 2.063-2.001-.924-1.999-2.063-1.999c-1.139-.001-2.063.894-2.063 1.999m0 8c0 1.105.924 2.001 2.063 2.001s2.063-.896 2.063-2.001-.924-1.999-2.063-1.999c-1.139-.001-2.063.894-2.063 1.999m0 8c0 1.105.924 2.001 2.063 2.001s2.063-.896 2.063-2.001-.924-1.999-2.063-1.999c-1.139-.001-2.063.894-2.063 1.999m0 8c0 1.105.924 2.001 2.063 2.001s2.063-.896 2.063-2.001-.924-1.999-2.063-1.999c-1.139-.001-2.063.894-2.063 1.999m0 8c0 1.105.924 2.001 2.063 2.001s2.063-.896 2.063-2.001-.924-1.999-2.063-1.999c-1.139-.001-2.063.894-2.063 1.999m0 8c0 1.105.924 2.001 2.063 2.001s2.063-.896 2.063-2.001-.924-1.999-2.063-1.999c-1.139-.001-2.063.894-2.063 1.999m0 8c0 1.105.924 2.001 2.063 2.001s2.063-.896 2.063-2.001-.924-1.999-2.063-1.999c-1.139-.001-2.063.894-2.063 1.999m0 8c0 1.105.924 2.001 2.063 2.001s2.063-.896 2.063-2.001-.924-1.999-2.063-1.999c-1.139-.001-2.063.894-2.063 1.999" opacity=".1"/><g clip-path="url(#a)"><rect width="276" height="203.543" x="65.141" y="71.672" fill="#252836" rx="12" transform="rotate(-15 65.14 71.672)"/><g clip-path="url(#b)"><rect width="252" height="51.974" x="79.838" y="80.157" fill="#2F3142" rx="8" transform="rotate(-15 79.838 80.157)"/><path fill="#FAFAFA" d="M129.058 93.945c1.985 7.408-2.434 15.059-9.84 17.044-7.406 1.984-15.059-2.433-17.044-9.84-1.984-7.407 2.434-15.06 9.84-17.044 7.37-2.121 15.06 2.434 17.044 9.84"/><path fill="#233CAF" d="M111.977 83.969c-7.543 2.021-11.962 9.674-9.977 17.08l.294 1.097 13.442-3.602-3.896-14.539z"/><path fill="#FAFAFA" d="m109.754 91.032.01.586.338-.385.486.164-.285-.512.301-.521-.585.01-.385-.339-.164.485-.511.285zm-.333-3.438-.384-.338-.165.485-.512.284.522.301.01.585.338-.385.485.165-.284-.512.301-.522zm-5.747 12.565-.385-.338-.164.485-.513.284.522.302.01.585.339-.384.485.163-.285-.511.301-.522zm-1.803-.693.301-.521-.411.11c.073.274.009.585.082.859l.312.064zm8.692-5.416.01.585.338-.385.485.165-.285-.512.302-.522-.586.01-.384-.338-.164.484-.512.285zm-8.075 1.135-.284-.512.301-.522-.586.01-.037-.137c-.063.311-.127.622-.153 1.07l.237-.21.522.3Zm.377 1.957-.385-.338-.163.485-.513.284.522.301.01.586.338-.385.485.164-.285-.512.302-.522zm8.47-.211.01.585.338-.385.485.164-.285-.511.302-.522-.586.009-.385-.337-.163.484-.512.285zm-1.057-11.625-.164.484-.512.285.522.301.01.586.338-.385.485.164-.285-.511.302-.522-.586.009zm-3.456 1.366-.138.037c-.136.037-.136.037-.236.211l.347.2.01.586.338-.384.485.163-.284-.511.301-.522-.586.01-.21-.237c.21.237.073.274-.027.447m6.563 11.326.01.586.338-.385.485.164-.284-.512.301-.522-.586.01-.384-.338-.164.486-.512.283zm-.808-3.018.009.586.338-.385.485.165-.284-.513.302-.521-.587.01-.384-.339-.164.485-.512.285zm-1.105-6.319-.385-.338-.164.485-.513.284.522.302.01.585.338-.385.485.164-.284-.511.301-.522zm.333 3.44.009.585.338-.385.486.164-.284-.512.301-.522-.586.01-.384-.337-.165.484-.512.285.797.227Zm-8.47.21-.384-.337-.165.485-.512.284.522.301.01.585.338-.385.485.165-.284-.512.301-.522zm5.009 4.98-.384-.338-.165.485-.511.284.522.301.01.585.337-.385.485.165-.284-.512.301-.522zm-.772-2.88-.384-.339-.164.485-.512.284.522.302.01.585.337-.385.485.164-.284-.511.302-.522zm1.242-1.95-.385-.338-.164.485-.512.284.522.301.01.585.338-.385.485.165-.284-.512.301-.522zm-3.899 5.749-.384-.339-.164.486-.512.283.522.302.009.585.338-.385.485.165-.284-.512.301-.522zm4.671-2.869-.385-.338-.164.485-.512.284.522.301.01.586.338-.385.485.164-.285-.512.302-.522zm.809 3.017-.385-.338-.165.486-.512.283.522.302.01.585.339-.384.485.163-.285-.511.301-.522zm-2.352-8.778-.385-.338-.165.485-.512.284.522.302.01.585.338-.385.486.164-.285-.511.301-.522zm-3.429.919-.385-.338-.165.485-.512.284.522.301.01.586.338-.385.486.164-.285-.512.301-.522zm-.471 4.83-.384-.338-.164.485-.512.284.522.301.009.586.338-.385.485.164-.284-.512.302-.522zm1.242-1.95-.385-.338-.164.486-.512.284.522.3.01.586.338-.385.485.164-.284-.511.301-.522zm.772 2.88-.385-.337-.164.485-.512.284.522.301.01.585.338-.385.485.165-.285-.512.302-.522zm-.165-7.746-.384-.339-.165.486-.511.284.521.3.011.586.337-.385.485.165-.284-.512.301-.522zm.772 2.88-.384-.338-.165.485-.512.284.522.301.01.585.337-.384.486.164-.284-.512.301-.522zm.75 7.737-.301.522.284.512-.485-.165-.338.385-.01-.585-.521-.301.511-.284.165-.485.384.338z"/><path fill="#EB0000" d="m108.377 109.483 19.476-5.218c.503-.87.868-1.702 1.059-2.636l-22.769 6.101c.632.713 1.365 1.252 2.234 1.753m10.704 1.543a13.45 13.45 0 0 0 6.681-4.143l-14.539 3.896c2.562.784 5.251.945 7.858.247m9.546-18.14-13.442 3.601.588 2.194 13.442-3.602-.294-1.097c.027-.448-.047-.722-.294-1.097Zm-24.096 13.218 24.963-6.689c.091-.759.181-1.519.098-2.378l-26.335 7.056c.358.786.816 1.399 1.274 2.011m9.137-15.826 11.385-3.05c-.769-.677-1.502-1.215-2.234-1.753l-9.739 2.609zm1.103 4.115 13.167-3.528c-.321-.65-.815-1.4-1.274-2.011l-12.481 3.344zm-2.205-8.23 7.269-1.947a13.45 13.45 0 0 0-7.857-.247l.588 2.195Z"/><path fill="#fff" d="m142.34 92.268-1.929-7.202 1.514-.406 1.905 7.11c.481 1.792 1.735 2.516 3.512 2.04 1.762-.472 2.466-1.738 1.99-3.515l-1.905-7.11 1.53-.41 1.93 7.203c.687 2.565-.524 4.596-3.152 5.3-2.642.708-4.703-.43-5.395-3.01m13.335.684-1.453.39-2.025-7.558 1.314-.352.465 1.117c.247-.993 1.069-1.76 2.135-2.046 1.994-.534 3.233.443 3.75 2.374l1.239 4.621-1.453.39-1.151-4.297c-.41-1.53-1.287-1.957-2.4-1.66-1.36.365-1.887 1.55-1.494 3.018zm5.642-11.533a.997.997 0 0 1-1.215-.702.987.987 0 0 1 .702-1.215.987.987 0 0 1 1.215.702 1 1 0 0 1-.702 1.215m1.795 9.54-2.025-7.557 1.452-.39 2.025 7.558zm5.694-1.526-1.452.39-1.698-6.337-1.484.398-.327-1.221 1.484-.398-.634-2.364 1.453-.39.633 2.365 1.484-.398.327 1.221-1.484.398zm6.023-1.415c-2.226.597-4.186-.6-4.816-2.95-.633-2.364.427-4.404 2.621-4.992 2.149-.576 3.953.531 4.553 2.772l.145.54-5.838 1.582c.535 1.563 1.605 2.22 3.043 1.835 1.128-.303 1.746-.965 1.761-1.897l1.36-.364c.064 1.722-.959 2.973-2.829 3.474m-1.867-6.721c-1.268.34-1.868 1.312-1.698 2.69l4.358-1.167c-.335-1.252-1.378-1.867-2.66-1.523m10.011 4.54c-2.194.587-3.962-.695-4.579-2.998-.621-2.318.268-4.378 2.509-4.979 1.159-.31 2.269-.061 3.027.73l-1.35-5.039 1.438-.385 3.048 11.375-1.299.348-.492-1.343c-.217 1.168-1.096 1.967-2.302 2.29Zm-.058-1.393c1.484-.398 2.102-1.74 1.679-3.316-.414-1.545-1.624-2.414-3.108-2.016-1.483.397-2.051 1.742-1.636 3.288.418 1.56 1.581 2.441 3.065 2.044m7.884-9.65c-.513-1.916.684-3.628 2.987-4.245 2.133-.572 3.827.25 4.468 2.148l-1.53.41c-.375-1.092-1.337-1.53-2.589-1.194-1.406.377-2.128 1.332-1.834 2.43.24.896.895 1.3 2.013 1.266l1.955-.06c1.935-.072 3.127.669 3.55 2.245.538 2.01-.679 3.71-3.059 4.348-2.272.609-4.105-.175-4.712-2.067l1.546-.414c.316 1.058 1.395 1.498 2.801 1.121 1.484-.397 2.241-1.346 1.942-2.458-.236-.881-.864-1.31-1.997-1.27l-1.95.075c-1.936.071-3.16-.727-3.591-2.335m13.641 5.091-1.453.39-1.698-6.337-1.483.398-.328-1.221 1.484-.398-.633-2.364 1.452-.39.634 2.365 1.484-.398.327 1.221-1.484.398zm4.956-1.129c-1.622.435-2.825-.22-3.193-1.596-.373-1.39.431-2.534 2.171-3.149l2.33-.823-.058-.216c-.34-1.268-1.217-1.513-2.237-1.24-1.221.328-1.772 1.055-1.527 1.967l-1.267.34c-.423-1.577.598-2.96 2.545-3.482 1.87-.501 3.403.148 3.949 2.188l1.271 4.745-1.236.331-.482-1.18c-.154.97-1.045 1.788-2.266 2.115m.115-1.24c1.376-.369 1.97-1.489 1.589-2.91l-.107-.402-1.891.672c-1.249.467-1.642 1.103-1.444 1.844.216.804.911 1.049 1.853.796m7.893-1.104-1.452.389-1.698-6.337-1.484.398-.327-1.221 1.484-.398-.634-2.364 1.453-.39.633 2.365 1.484-.397.327 1.22-1.483.398zm6.023-1.415c-2.225.596-4.186-.601-4.816-2.95-.633-2.365.427-4.405 2.622-4.993 2.148-.576 3.952.531 4.552 2.772l.145.541-5.838 1.58c.535 1.564 1.606 2.22 3.043 1.836 1.128-.302 1.746-.965 1.761-1.897l1.36-.364c.064 1.722-.959 2.974-2.829 3.475m-1.867-6.722c-1.268.34-1.868 1.312-1.698 2.69l4.359-1.167c-.336-1.252-1.379-1.867-2.661-1.523m5.727 3.136 1.39-.372c.208.773.919 1.079 1.877.822 1.02-.273 1.496-.848 1.309-1.543-.136-.51-.466-.753-1.308-.743l-1.412.047c-1.432.036-2.244-.459-2.542-1.572-.372-1.39.566-2.586 2.235-3.034 1.654-.443 2.984.195 3.4 1.624l-1.391.373c-.234-.75-.872-1.092-1.753-.856-.912.245-1.314.783-1.128 1.478.137.51.599.751 1.39.738l1.417-.032c1.365-.034 2.156.383 2.458 1.511.386 1.438-.606 2.68-2.399 3.161-1.778.476-3.158-.164-3.543-1.602"/><path fill="#B6B0FF" d="m296 55.293-1.163.312.529 1.974-1.271.34-.529-1.974-5.058 1.355-.315-1.176 2.836-7.862 1.717-.46 1.776 6.626 1.163-.312zm-6.374.447 3.624-.971-1.398-5.22zm4.575-8.328 6.829-1.83.326 1.217-1.412 9.553-1.379.37 1.452-9.564-5.49 1.471zm13.04-1.016c.388 1.447-.361 2.764-1.808 3.151-1.433.385-2.74-.381-3.127-1.828-.392-1.46.357-2.777 1.79-3.162 1.447-.387 2.754.379 3.145 1.84Zm4.537-3.68L306.97 54.47l-1.298.348 4.808-11.753zm-5.578 3.96c-.235-.88-.98-1.333-1.832-1.104-.838.224-1.257.989-1.021 1.868.232.865.976 1.318 1.815 1.093.838-.224 1.27-.992 1.038-1.858Zm8.967 3.119c.388 1.447-.374 2.767-1.808 3.151-1.433.384-2.754-.378-3.141-1.825-.392-1.46.374-2.767 1.808-3.151 1.433-.384 2.75.364 3.141 1.825m-1.055.282c-.235-.879-.966-1.335-1.818-1.107-.839.225-1.257.99-1.021 1.868.231.866.976 1.318 1.814 1.094.839-.225 1.257-.99 1.025-1.855"/></g><g clip-path="url(#c)"><rect width="252" height="51.595" x="112.953" y="203.745" fill="#2F3142" rx="8" transform="rotate(-15 112.953 203.745)"/><path fill="#ED2939" d="m149.365 207.28 6.71 25.042c4.611-3.257 7.082-9.113 5.53-14.903-1.547-5.789-6.616-9.628-12.24-10.139"/><path fill="#FAFAFA" d="M149.366 207.28q-2.235-.269-4.658.38c-1.481.397-3.025 1.1-4.228 1.996l6.71 25.042q2.237.268 4.661-.383t4.227-1.998l-6.709-25.038z"/><path fill="#002395" d="m147.326 234.666-6.71-25.042c-4.611 3.254-7.082 9.113-5.531 14.901 1.552 5.79 6.484 9.662 12.241 10.141"/><path fill="#fff" d="m180.679 213.432-4.389 1.176 1.271 4.745-1.514.406-2.994-11.174 6.738-1.806.373 1.391-5.224 1.4.982 3.663 4.389-1.176zm5.511-4.558.356 1.33-.649.173c-1.375.369-2.002 1.431-1.612 2.884l1.072 4.003-1.453.389-2.021-7.542 1.36-.364.4 1.119c.098-.871.714-1.6 1.75-1.877a3.6 3.6 0 0 1 .797-.115m5.362 6.929c-1.623.434-2.825-.221-3.194-1.596-.372-1.391.431-2.534 2.171-3.149l2.331-.823-.058-.217c-.34-1.267-1.217-1.512-2.237-1.239-1.221.327-1.772 1.054-1.528 1.966l-1.267.34c-.422-1.577.599-2.96 2.546-3.482 1.87-.501 3.402.149 3.949 2.189l1.271 4.744-1.236.332-.482-1.18c-.154.969-1.045 1.788-2.266 2.115m.115-1.24c1.376-.369 1.97-1.489 1.589-2.911l-.108-.402-1.89.673c-1.25.467-1.643 1.102-1.444 1.844.215.804.91 1.048 1.853.796m7.334-.955-1.453.389-2.025-7.557 1.314-.352.465 1.118c.247-.994 1.069-1.761 2.135-2.047 1.994-.534 3.233.443 3.75 2.375l1.238 4.621-1.452.389-1.152-4.297c-.41-1.53-1.286-1.957-2.399-1.659-1.36.364-1.887 1.549-1.494 3.017zm5.932-5.631c-.634-2.365.426-4.405 2.636-4.997 1.901-.509 3.52.217 4.234 1.831l-1.453.389c-.504-.892-1.413-1.195-2.387-.934-1.375.369-2.036 1.672-1.597 3.31.435 1.623 1.597 2.438 2.973 2.069 1.035-.277 1.663-1.025 1.685-1.992l1.453-.389c.145 1.717-.967 3.191-2.791 3.68-2.225.596-4.116-.587-4.753-2.967m13.071.738c-2.226.596-4.186-.601-4.816-2.95-.633-2.365.427-4.405 2.621-4.993 2.149-.575 3.953.531 4.553 2.772l.145.541-5.838 1.581c.535 1.563 1.605 2.22 3.043 1.835 1.128-.302 1.746-.965 1.761-1.896l1.36-.365c.064 1.722-.959 2.974-2.829 3.475m-1.867-6.722c-1.268.34-1.869 1.312-1.698 2.691l4.358-1.168c-.335-1.251-1.378-1.866-2.66-1.523"/><path fill="#B6B0FF" d="M320.536 179.991c-.315-1.177.121-2.308 1.097-2.99-1.024-.146-1.731-.783-1.996-1.77-.409-1.528.624-2.921 2.571-3.443 1.92-.514 3.497.179 3.911 1.721.268 1.001-.04 1.909-.861 2.521 1.189.058 2.153.843 2.476 2.046.46 1.718-.665 3.251-2.829 3.831-2.177.584-3.905-.185-4.369-1.916m.34-5.005c.258.96 1.222 1.368 2.439 1.042 1.231-.329 1.838-1.145 1.585-2.091-.25-.933-1.18-1.322-2.411-.992-1.217.326-1.856 1.135-1.613 2.041m.933 4.562c.293 1.095 1.388 1.556 2.781 1.183 1.379-.37 2.097-1.316 1.803-2.411-.29-1.082-1.367-1.533-2.774-1.156-1.392.373-2.1 1.302-1.81 2.384m14.304-.833-6.595 1.782-.272-1.014 2.422-3.562c1.217-1.79 1.485-2.572 1.206-3.614-.329-1.23-1.228-1.772-2.405-1.457-1.203.323-1.752 1.412-1.406 2.812l-1.325.355c-.521-2.107.438-3.828 2.426-4.36 1.961-.526 3.537.327 4.041 2.207.373 1.393-.052 2.565-1.381 4.53l-1.557 2.301 4.517-1.21zm4.065-9.075c.387 1.447-.361 2.764-1.808 3.152-1.434.384-2.74-.382-3.128-1.829-.392-1.461.357-2.777 1.791-3.161 1.447-.388 2.753.378 3.145 1.838m4.536-3.679-4.808 11.753-1.298.348 4.808-11.753zm-5.578 3.958c-.235-.879-.98-1.331-1.832-1.103-.838.224-1.256.989-1.021 1.868.232.865.977 1.318 1.815 1.093.838-.224 1.27-.992 1.038-1.858m8.967 3.12c.388 1.447-.374 2.767-1.808 3.151-1.433.384-2.753-.378-3.141-1.825-.391-1.461.374-2.767 1.808-3.151 1.433-.384 2.75.364 3.141 1.825m-1.054.282c-.236-.879-.967-1.335-1.819-1.107-.838.225-1.257.989-1.021 1.868.232.866.976 1.318 1.815 1.094.838-.225 1.256-.989 1.025-1.855"/></g></g><path fill="#252836" d="M251.5 221c0-8.56 6.94-15.5 15.5-15.5h267c8.56 0 15.5 6.94 15.5 15.5v330.5h-298z"/><path fill="#fff" d="M282.008 257h-8.416v-23.392h8.192c6.912 0 11.68 4.768 11.68 11.744 0 6.88-4.672 11.648-11.456 11.648m-.608-19.616h-3.712v15.84h3.936c4.672 0 7.52-3.008 7.52-7.872 0-4.96-2.912-7.968-7.744-7.968m17.256.64c-1.344 0-2.4-1.056-2.4-2.368s1.056-2.336 2.4-2.336a2.33 2.33 0 0 1 2.336 2.336c0 1.312-1.056 2.368-2.336 2.368M296.704 257v-15.808h3.904V257zm6.721-4.8h3.712c.032 1.376 1.056 2.24 2.848 2.24 1.824 0 2.816-.736 2.816-1.888 0-.8-.416-1.376-1.824-1.696l-2.848-.672c-2.848-.64-4.224-1.984-4.224-4.512 0-3.104 2.624-4.96 6.272-4.96 3.552 0 5.952 2.048 5.984 5.12h-3.712c-.032-1.344-.928-2.208-2.432-2.208-1.536 0-2.432.704-2.432 1.888 0 .896.704 1.472 2.048 1.792l2.848.672c2.656.608 4 1.824 4 4.256 0 3.2-2.72 5.184-6.624 5.184-3.936 0-6.432-2.112-6.432-5.216m15.101-3.136c0-4.896 3.232-8.352 7.904-8.352 4.32 0 7.264 2.4 7.68 6.208h-3.904c-.448-1.792-1.76-2.72-3.616-2.72-2.496 0-4.16 1.888-4.16 4.864s1.536 4.832 4.032 4.832c1.952 0 3.328-.96 3.744-2.688h3.936c-.48 3.68-3.552 6.208-7.68 6.208-4.801 0-7.936-3.328-7.936-8.352m17.593 0c0-4.928 3.552-8.32 8.448-8.32s8.448 3.392 8.448 8.32-3.552 8.32-8.448 8.32-8.448-3.392-8.448-8.32m3.904 0c0 2.88 1.856 4.832 4.544 4.832s4.544-1.952 4.544-4.832-1.856-4.832-4.544-4.832-4.544 1.952-4.544 4.832m26.432-7.872h3.904V257h-3.616l-.288-2.112c-.96 1.504-3.008 2.528-5.12 2.528-3.648 0-5.792-2.464-5.792-6.336v-9.888h3.904v8.512c0 3.008 1.184 4.224 3.36 4.224 2.464 0 3.648-1.44 3.648-4.448zM378.295 257h-3.904v-15.808h3.616l.32 2.048c.992-1.6 2.912-2.528 5.056-2.528 3.968 0 6.016 2.464 6.016 6.56V257h-3.904v-8.8c0-2.656-1.312-3.936-3.328-3.936-2.4 0-3.872 1.664-3.872 4.224zm20.316 0h-3.904v-12.544h-3.04v-3.264h3.04v-4.928h3.904v4.928h3.072v3.264h-3.072z"/><g clip-path="url(#d)"><path fill="#300" d="M378.105 392.516c-5.41-4.434-8.248-10.73-8.248-18.357v-36.005c8.514-4.434 18.801-6.739 30.595-6.739s22.082 2.305 30.596 6.828v36.005c0 7.538-2.838 13.923-8.248 18.357-4.877 3.99-20.574 10.819-22.348 11.617-1.773-.798-17.47-7.627-22.347-11.706"/><path fill="#FFBE00" d="M429.45 337.71c-3.902-.354-8.07-.62-12.238-.62-15.431 0-32.103 3.369-45.76 15.874v21.46c0 7.006 2.571 12.859 7.538 16.85 4.345 3.547 17.736 9.578 21.461 11.262 3.724-1.596 17.027-7.626 21.461-11.262 4.966-4.079 7.538-9.755 7.538-16.85zm-55.161 34.497v-17.381h5.587v17.736c0 1.596.355 3.902 2.927 3.902 1.153 0 2.04-.266 2.66-.709v-20.929h5.587v24.121c-2.128 1.419-4.966 2.217-8.336 2.217-5.675-.088-8.425-3.015-8.425-8.957m25.097 20.22h-5.587v-36.182c2.04-1.33 4.435-1.951 7.45-1.951 6.651 0 10.287 5.055 10.287 13.125s-3.547 13.657-9.666 13.657c-1.153 0-1.951-.178-2.484-.355zm0-16.229c.355.177 1.065.355 1.774.355 3.193 0 4.7-2.927 4.7-9.046 0-6.207-1.33-8.779-4.523-8.779-.709 0-1.507.177-1.951.443zm13.391-14.721c0-4.523 3.814-7.095 7.45-7.272 3.015-.089 5.143 1.064 6.119 1.774v4.877c-1.153-1.153-3.015-2.306-4.966-2.306-1.597 0-3.193.71-3.282 2.661-.088 2.04 1.597 2.838 3.636 3.991 4.612 2.749 5.499 5.143 5.41 8.424-.089 3.548-2.572 7.45-8.07 7.45-2.217 0-4.346-.71-6.119-1.685v-5.144c1.419 1.242 3.547 2.217 5.321 2.217 2.039 0 3.37-1.153 3.37-3.104 0-1.773-1.064-2.66-3.459-4.168-4.523-2.572-5.321-4.789-5.41-7.715m-35.65 32.103c-5.675-4.612-8.602-11.174-8.602-19.067v-37.601c8.868-4.7 19.599-7.094 31.926-7.094s23.057 2.394 31.925 7.094v37.601c0 7.893-2.926 14.544-8.602 19.155-5.143 4.168-21.461 11.352-23.323 12.15-1.863-.798-18.18-7.982-23.324-12.238m43.721 7.892v3.282h.62v-1.331h.089c0 .089.887 1.331.887 1.331h.709s-.887-1.331-.975-1.419c.443-.089.709-.444.709-.887 0-.444-.266-.976-1.064-.976zm.798.532c.532 0 .532.266.532.444 0 .266-.089.532-.798.532h-.089v-.976zm2.305 1.153a2.195 2.195 0 0 1-2.217 2.217 2.195 2.195 0 0 1-2.217-2.217c0-1.241.976-2.217 2.217-2.217s2.217.976 2.217 2.217m-2.217-2.749c-1.507 0-2.66 1.242-2.66 2.661 0 1.507 1.241 2.66 2.66 2.66 1.508 0 2.661-1.242 2.661-2.66.089-1.419-1.153-2.661-2.661-2.661"/></g><path fill="#fff" d="M339.476 468.905c0-5.694 3.208-10.276 8.182-12.174-4.189-1.898-6.48-5.498-6.48-10.146 0-7.592 6.742-12.829 16.626-12.829 9.818 0 16.429 5.171 16.429 12.96 0 4.648-2.357 8.248-6.611 10.015 5.04 1.767 8.313 6.414 8.313 12.174 0 8.64-7.135 14.335-18.262 14.335-11.062 0-18.197-5.629-18.197-14.335m9.295-21.6c0 3.993 3.469 6.546 8.902 6.546 5.367 0 8.771-2.487 8.771-6.48s-3.404-6.48-8.771-6.48c-5.433 0-8.902 2.487-8.902 6.414m-1.113 21.011c0 4.648 3.862 7.528 10.08 7.528 6.087 0 9.949-2.88 9.949-7.528s-3.862-7.527-10.014-7.527c-6.153 0-10.015 2.88-10.015 7.527m66.111 14.073-33.186.066v-6.284l15.644-13.222c6.48-5.498 8.64-8.64 8.64-13.222 0-5.432-2.945-8.509-7.985-8.509-5.237 0-8.51 3.666-8.575 9.818h-8.313c.066-10.472 6.742-17.28 16.888-17.28 10.21 0 16.56 5.826 16.56 15.513 0 6.676-3.666 11.716-10.931 17.935l-8.64 7.396h19.898zm27.335-46.533c0 3.699-2.618 6.284-6.251 6.284s-6.251-2.585-6.251-6.284c0-3.665 2.618-6.283 6.251-6.283s6.251 2.618 6.251 6.283m13.124-5.792-18.164 23.891h-3.993l18.164-23.891zm-16.299 5.792c0-1.898-1.243-3.207-3.076-3.207s-3.044 1.309-3.044 3.207c0 1.899 1.244 3.208 3.044 3.208 1.833 0 3.076-1.309 3.076-3.208m19.8 12.24c0 3.666-2.585 6.284-6.218 6.284-3.665 0-6.251-2.618-6.251-6.284s2.586-6.283 6.251-6.283c3.633 0 6.218 2.618 6.218 6.283m-3.174 0c0-1.898-1.244-3.207-3.044-3.207-1.833 0-3.076 1.309-3.076 3.207 0 1.899 1.243 3.208 3.076 3.208 1.8 0 3.044-1.309 3.044-3.208m-15.897 30.96c0 4.8-3.142 8.16-7.615 8.16-4.451 0-7.549-3.36-7.549-8.16 0-4.778 3.12-8.16 7.571-8.16 4.473 0 7.593 3.36 7.593 8.16m-2.248 0c0-3.665-2.138-6.087-5.345-6.087s-5.324 2.422-5.324 6.087c0 3.666 2.117 6.109 5.324 6.109s5.345-2.465 5.345-6.109m13.317 1.2h-6.196v6.699h-2.139V471.18h9.513v1.964h-7.374v5.171h6.196zm12.102 0h-6.196v6.699h-2.138V471.18h9.512v1.964h-7.374v5.171h6.196z"/><path stroke="url(#e)" d="M251.5 221c0-8.56 6.94-15.5 15.5-15.5h267c8.56 0 15.5 6.94 15.5 15.5v330.5h-298z"/><rect width="325.511" height="119" x="25.5" y="563.5" fill="#2F3142" rx="10.663"/><g filter="url(#f)"><rect width="97.674" height="97.674" x="36.163" y="574.163" fill="#2F3142" rx="7.814"/><g clip-path="url(#g)"><mask id="h" width="60" height="59" x="55" y="585" maskUnits="userSpaceOnUse" style="mask-type:luminance"><path fill="#fff" d="M114.306 585.197H55.702v58.604h58.604z"/></mask><g mask="url(#h)"><path fill="#9990FF" d="M68.838 633.162a4.73 4.73 0 0 1-4.722-4.722 4.735 4.735 0 0 1 4.722-4.723 4.735 4.735 0 0 1 4.723 4.723 4.735 4.735 0 0 1-4.723 4.722m0-8.424a3.694 3.694 0 0 0-3.691 3.691c0 2.032 1.65 3.702 3.691 3.702a3.694 3.694 0 0 0 3.692-3.691c0-2.032-1.66-3.702-3.692-3.702"/><path fill="#9990FF" d="M68.84 630.687a2.253 2.253 0 0 1-2.248-2.248 2.253 2.253 0 0 1 2.248-2.248 2.253 2.253 0 0 1 2.248 2.248 2.253 2.253 0 0 1-2.248 2.248m0-3.475a1.221 1.221 0 0 0 0 2.444c.68 0 1.217-.547 1.217-1.217s-.547-1.227-1.217-1.227m31.137 3.475a2.253 2.253 0 0 1-2.248-2.248 2.253 2.253 0 0 1 2.248-2.248 2.254 2.254 0 0 1 2.248 2.248 2.254 2.254 0 0 1-2.248 2.248m0-3.475a1.22 1.22 0 0 0-1.217 1.217 1.218 1.218 0 0 0 2.434 0 1.22 1.22 0 0 0-1.217-1.217"/><path fill="#9990FF" d="M99.979 633.162a4.73 4.73 0 0 1-4.723-4.722 4.735 4.735 0 0 1 4.723-4.723 4.73 4.73 0 0 1 4.723 4.723 4.736 4.736 0 0 1-4.723 4.722m0-8.424a3.694 3.694 0 0 0-3.692 3.691 3.7 3.7 0 0 0 3.692 3.692 3.7 3.7 0 0 0 3.691-3.692 3.7 3.7 0 0 0-3.691-3.691"/><path fill="#9990FF" d="M110.888 628.955h-6.702a.51.51 0 0 1-.516-.516v-2.114a.51.51 0 0 1 .516-.515h6.702a.51.51 0 0 1 .516.515v2.114a.517.517 0 0 1-.516.516m-6.187-1.031h5.672v-1.083h-5.672z"/><path fill="#9990FF" d="M110.886 628.954h-2.114a.51.51 0 0 1-.516-.515v-6.703a.51.51 0 0 1 .516-.515h2.114a.51.51 0 0 1 .515.515v6.703a.517.517 0 0 1-.515.515m-1.599-1.031h1.083v-5.671h-1.083zm-13.527 1.031H73.042v-1.031h22.2v-5.032H63.01v5.032h1.619v1.031h-2.135a.51.51 0 0 1-.515-.515v-6.063a.51.51 0 0 1 .516-.516H95.77a.51.51 0 0 1 .515.516v6.063a.533.533 0 0 1-.526.515Zm13.014-13.941h-.062l-7.352-.876a2.65 2.65 0 0 1-2.33-2.629v-3.795a.51.51 0 0 1 .515-.516h5.847c.196 0 .371.114.464.289l3.382 6.775a.51.51 0 0 1-.041.526.5.5 0 0 1-.423.226m-8.713-6.774v3.269c0 .814.608 1.505 1.423 1.598l6.403.763-2.815-5.641h-5.011zm-.516 10.899h2.681v1.031h-2.68zm-3.816-13.611h11.549v1.031h-11.55v-1.031Z"/><path fill="#9990FF" d="M95.76 622.892h-4.156a.51.51 0 0 1-.516-.516V596.35a.51.51 0 0 1 .516-.516h4.155a.51.51 0 0 1 .516.516v18.148h-1.031v-17.633h-3.125v24.995h3.125v-5.3h1.03v5.806a.52.52 0 0 1-.515.526Z"/><path fill="#9990FF" d="M110.886 628.955h-6.702a.51.51 0 0 1-.516-.516v-3.506l-1.691-2.041H91.604a.51.51 0 0 1-.516-.516V596.35a.51.51 0 0 1 .516-.516h4.155a.46.46 0 0 1 .207.041l4.65 2.011a12.36 12.36 0 0 1 6.465 6.476l4.29 9.94a.5.5 0 0 1 .041.206v13.942a.53.53 0 0 1-.526.505m-6.187-1.031h5.672v-13.312l-4.249-9.838a11.35 11.35 0 0 0-5.918-5.929l-4.548-1.98H92.12v24.995h10.106a.55.55 0 0 1 .402.186l1.959 2.372a.53.53 0 0 1 .113.33v3.176Z"/><path fill="#9990FF" d="M93.666 603.155h5.672v1.032h-5.672z"/><path fill="#F2F0FF" d="M87.645 622.892H58.608v-1.031H87.13v-24.996H58.608v-1.031h29.037a.51.51 0 0 1 .516.516v26.026a.517.517 0 0 1-.516.516"/><path fill="#F2F0FF" d="M85.005 620.479h-5.568v-1.031h5.053v-20.18H58.608v-1.031h26.397a.51.51 0 0 1 .516.516v21.211a.51.51 0 0 1-.516.515m-26.397-1.032h18.767v1.031H58.608z"/><path fill="#9990FF" d="M91.604 628.955h-9.59a.51.51 0 0 1-.516-.515v-4.207a.51.51 0 0 1 .516-.516h9.59a.51.51 0 0 1 .515.516v4.207a.517.517 0 0 1-.515.515m-9.075-1.031h8.56v-3.176h-8.56z"/><path fill="#9990FF" d="M84.8 624.191h1.03v4.228H84.8zm2.991 0h1.031v4.227h-1.03v-4.227Z"/></g></g><path fill="#fff" d="M63.84 656.802h-2.936v-8.16h2.858c2.41 0 4.074 1.664 4.074 4.097 0 2.4-1.63 4.063-3.996 4.063m-.212-6.842h-1.295v5.525h1.373c1.63 0 2.623-1.049 2.623-2.746 0-1.73-1.016-2.779-2.701-2.779m7.135 6.842h-1.428v-8.16h3.114c1.853 0 2.936.938 2.936 2.545 0 1.094-.514 1.876-1.474 2.267l1.552 3.348H73.9l-1.384-3.047h-1.753zm0-6.887v2.579h1.686c.904 0 1.44-.48 1.44-1.307 0-.814-.536-1.272-1.44-1.272zm7.996 3.672-2.757-4.945H77.6l1.607 2.97c.123.223.201.402.29.602.1-.2.145-.334.29-.602l1.597-2.97h1.551l-2.746 4.945v3.215H78.76v-3.215Zm10.819 3.215-3.08-8.16h1.517l1.786 4.7c.179.491.335.971.514 1.63.2-.715.368-1.217.524-1.63l1.764-4.7h1.485l-3.036 8.16zm5.21 0h-1.484l2.947-8.16h1.462l2.947 8.16h-1.507l-.659-1.886h-3.047zm2.01-5.726-.927 2.634h2.21l-.937-2.634c-.067-.212-.145-.458-.168-.625a6 6 0 0 1-.178.625m6.459 5.726h-1.406v-8.16h1.417l3.829 5.783v-5.783h1.407v8.16h-1.407l-3.84-5.782z"/></g><g clip-path="url(#i)"><mask id="j" width="60" height="59" x="158" y="585" maskUnits="userSpaceOnUse" style="mask-type:luminance"><path fill="#fff" d="M217.554 585.199h-58.605v58.605h58.605z"/></mask><g mask="url(#j)"><path fill="#9990FF" d="M172.086 633.166a4.73 4.73 0 0 1-4.723-4.723 4.736 4.736 0 0 1 4.723-4.722 4.735 4.735 0 0 1 4.723 4.722 4.735 4.735 0 0 1-4.723 4.723m0-8.424a3.694 3.694 0 0 0-3.691 3.691c0 2.031 1.649 3.702 3.691 3.702a3.695 3.695 0 0 0 3.692-3.692c0-2.031-1.661-3.701-3.692-3.701"/><path fill="#9990FF" d="M172.084 630.691a2.254 2.254 0 0 1-2.248-2.248 2.253 2.253 0 0 1 2.248-2.248 2.253 2.253 0 0 1 2.248 2.248 2.254 2.254 0 0 1-2.248 2.248m0-3.475c-.67 0-1.217.546-1.217 1.216a1.22 1.22 0 0 0 1.217 1.227c.681 0 1.217-.546 1.217-1.216 0-.671-.547-1.227-1.217-1.227m31.144 3.475a2.253 2.253 0 0 1-2.247-2.248 2.25 2.25 0 0 1 2.247-2.248 2.253 2.253 0 0 1 2.248 2.248 2.253 2.253 0 0 1-2.248 2.248m0-3.475c-.67 0-1.216.546-1.216 1.216 0 .671.546 1.217 1.216 1.217.671 0 1.217-.546 1.217-1.217 0-.67-.546-1.216-1.217-1.216"/><path fill="#9990FF" d="M203.227 633.166a4.73 4.73 0 0 1-4.723-4.723 4.735 4.735 0 0 1 4.723-4.722 4.73 4.73 0 0 1 4.722 4.722 4.735 4.735 0 0 1-4.722 4.723m0-8.424a3.694 3.694 0 0 0-3.692 3.691 3.7 3.7 0 0 0 3.692 3.692 3.7 3.7 0 0 0 3.691-3.692 3.7 3.7 0 0 0-3.691-3.691"/><path fill="#9990FF" d="M214.136 628.958h-6.702a.51.51 0 0 1-.516-.515v-2.114a.51.51 0 0 1 .516-.516h6.702a.51.51 0 0 1 .516.516v2.114a.517.517 0 0 1-.516.515m-6.187-1.031h5.672v-1.082h-5.672z"/><path fill="#9990FF" d="M214.134 628.959h-2.114a.51.51 0 0 1-.516-.515v-6.703a.51.51 0 0 1 .516-.515h2.114a.51.51 0 0 1 .515.515v6.703a.517.517 0 0 1-.515.515m-1.599-1.031h1.083v-5.671h-1.083zm-13.528 1.031h-22.716v-1.032h22.201v-5.032h-32.234v5.032h1.619v1.032h-2.135a.51.51 0 0 1-.515-.516v-6.063a.51.51 0 0 1 .515-.516h33.275a.51.51 0 0 1 .516.516v6.063a.533.533 0 0 1-.526.516m13.015-13.942h-.062l-7.352-.876a2.65 2.65 0 0 1-2.331-2.63v-3.794a.51.51 0 0 1 .516-.516h5.847c.196 0 .371.113.464.289l3.382 6.774a.51.51 0 0 1-.041.526.5.5 0 0 1-.423.227m-8.713-6.774v3.268c0 .815.608 1.506 1.423 1.599l6.403.763-2.815-5.641h-5.011zm-.516 10.899h2.681v1.031h-2.681zm-3.816-13.611h11.549v1.031h-11.549z"/><path fill="#9990FF" d="M199.007 622.895h-4.155a.51.51 0 0 1-.516-.515v-26.027a.51.51 0 0 1 .516-.515h4.155a.51.51 0 0 1 .516.515v18.149h-1.031v-17.633h-3.125v24.995h3.125v-5.3h1.031v5.805a.52.52 0 0 1-.516.526"/><path fill="#9990FF" d="M214.134 628.958h-6.702a.51.51 0 0 1-.516-.515v-3.506l-1.691-2.042h-10.373a.51.51 0 0 1-.516-.515v-26.027a.51.51 0 0 1 .516-.515h4.155c.072 0 .145.01.206.041l4.651 2.011a12.36 12.36 0 0 1 6.465 6.475l4.29 9.941a.5.5 0 0 1 .041.206v13.941a.53.53 0 0 1-.526.505m-6.187-1.031h5.672v-13.312l-4.249-9.837a11.35 11.35 0 0 0-5.919-5.929l-4.547-1.98h-3.537v24.995h10.105a.55.55 0 0 1 .403.186l1.959 2.371a.54.54 0 0 1 .113.33z"/><path fill="#9990FF" d="M196.914 603.159h5.671v1.031h-5.671z"/><path fill="#D4D0FF" d="M190.932 622.909h-29.076v-1.031h28.559v-1.468h-28.559v-1.032h29.076a.51.51 0 0 1 .516.516v2.499a.517.517 0 0 1-.516.516"/><path fill="#9990FF" d="M194.852 628.959h-9.59a.51.51 0 0 1-.516-.516v-4.207a.51.51 0 0 1 .516-.515h9.59a.51.51 0 0 1 .515.515v4.207a.517.517 0 0 1-.515.516m-9.075-1.031h8.559v-3.176h-8.559z"/><path fill="#9990FF" d="M188.047 624.195h1.031v4.228h-1.031zm2.992 0h1.031v4.228h-1.031z"/></g></g><path fill="#fff" d="M168.625 653.465h-3.036v3.337h-1.429v-8.16h5.045v1.318h-3.616v2.221h3.036zm3.465-4.823v6.843h3.415v1.317h-4.844v-8.16zm5.666 8.16h-1.485l2.947-8.16h1.463l2.947 8.16h-1.507l-.659-1.886h-3.047zm2.009-5.726-.926 2.634h2.21l-.938-2.634c-.067-.212-.145-.458-.167-.625a6 6 0 0 1-.179.625m3.608-1.116v-1.318h6.207v1.318h-2.389v6.842h-1.429v-6.842zm7.467 6.842v-8.16h3.248c1.607 0 2.59.838 2.59 2.199 0 .905-.402 1.552-1.172 1.876.859.279 1.295.926 1.295 1.875 0 1.395-.972 2.21-2.657 2.21zm3.125-6.898h-1.697v2.221h1.731c.781 0 1.216-.413 1.216-1.138 0-.704-.446-1.083-1.25-1.083m.123 3.427h-1.82v2.21h1.82c.804 0 1.25-.391 1.25-1.127 0-.693-.457-1.083-1.25-1.083m9.258 3.471h-5.068v-8.16h5.068v1.318h-3.639v2.098h3.259v1.262h-3.259v2.165h3.639zm4.652 0h-2.935v-8.16h2.857c2.411 0 4.075 1.664 4.075 4.097 0 2.4-1.63 4.063-3.997 4.063m-.212-6.842h-1.295v5.525h1.373c1.63 0 2.624-1.049 2.624-2.746 0-1.73-1.016-2.779-2.702-2.779"/><path fill="#9990FF" d="M275.342 633.165a4.73 4.73 0 0 1-4.723-4.723 4.735 4.735 0 0 1 4.723-4.722 4.735 4.735 0 0 1 4.722 4.722 4.735 4.735 0 0 1-4.722 4.723m0-8.424a3.694 3.694 0 0 0-3.692 3.691c0 2.031 1.65 3.702 3.692 3.702a3.694 3.694 0 0 0 3.691-3.692c0-2.031-1.66-3.701-3.691-3.701"/><path fill="#9990FF" d="M275.343 630.691a2.253 2.253 0 0 1-2.247-2.248 2.25 2.25 0 0 1 2.247-2.248 2.253 2.253 0 0 1 2.248 2.248 2.253 2.253 0 0 1-2.248 2.248m0-3.475c-.67 0-1.216.546-1.216 1.216a1.22 1.22 0 0 0 1.216 1.227c.681 0 1.217-.546 1.217-1.216 0-.671-.546-1.227-1.217-1.227m31.137 3.474a2.254 2.254 0 0 1-2.248-2.248 2.253 2.253 0 0 1 2.248-2.248 2.253 2.253 0 0 1 2.248 2.248 2.253 2.253 0 0 1-2.248 2.248m0-3.475c-.67 0-1.217.546-1.217 1.216a1.22 1.22 0 0 0 1.217 1.217 1.22 1.22 0 0 0 1.217-1.217c0-.67-.547-1.216-1.217-1.216"/><path fill="#9990FF" d="M306.482 633.165a4.73 4.73 0 0 1-4.722-4.723 4.735 4.735 0 0 1 4.722-4.722 4.73 4.73 0 0 1 4.723 4.722 4.735 4.735 0 0 1-4.723 4.723m0-8.424a3.694 3.694 0 0 0-3.691 3.691 3.7 3.7 0 0 0 3.691 3.692 3.7 3.7 0 0 0 3.692-3.692 3.7 3.7 0 0 0-3.692-3.691"/><path fill="#9990FF" d="M317.392 628.957h-6.703a.51.51 0 0 1-.515-.515v-2.114a.51.51 0 0 1 .515-.516h6.703a.51.51 0 0 1 .515.516v2.114a.517.517 0 0 1-.515.515m-6.187-1.031h5.671v-1.082h-5.671z"/><path fill="#9990FF" d="M317.389 628.958h-2.114a.51.51 0 0 1-.515-.515v-6.703a.51.51 0 0 1 .515-.515h2.114a.51.51 0 0 1 .516.515v6.703a.517.517 0 0 1-.516.515m-1.598-1.031h1.082v-5.671h-1.082zm-13.528 1.031h-22.716v-1.032h22.2v-5.032h-32.234v5.032h1.619v1.032h-2.134a.51.51 0 0 1-.516-.516v-6.063a.51.51 0 0 1 .516-.516h33.275a.51.51 0 0 1 .516.516v6.063a.534.534 0 0 1-.526.516m13.014-13.942h-.061l-7.353-.876a2.65 2.65 0 0 1-2.33-2.63v-3.794a.51.51 0 0 1 .516-.516h5.846c.196 0 .372.113.464.289l3.382 6.774a.51.51 0 0 1-.041.526.5.5 0 0 1-.423.227m-8.713-6.774v3.268c0 .815.609 1.506 1.423 1.599l6.404.763-2.815-5.641h-5.012zm-.515 10.899h2.681v1.031h-2.681zm-3.817-13.611h11.549v1.031h-11.549z"/><path fill="#9990FF" d="M302.263 622.894h-4.156a.51.51 0 0 1-.515-.515v-26.027a.51.51 0 0 1 .515-.515h4.156a.51.51 0 0 1 .515.515v18.149h-1.031v-17.633h-3.124v24.995h3.124v-5.3h1.031v5.805a.52.52 0 0 1-.515.526"/><path fill="#9990FF" d="M317.39 628.957h-6.703a.51.51 0 0 1-.515-.515v-3.506l-1.691-2.042h-10.374a.51.51 0 0 1-.515-.515v-26.027a.51.51 0 0 1 .515-.515h4.156a.5.5 0 0 1 .206.041l4.65 2.011a12.36 12.36 0 0 1 6.466 6.475l4.289 9.941a.5.5 0 0 1 .042.206v13.941a.53.53 0 0 1-.526.505m-6.187-1.031h5.671v-13.312l-4.248-9.837a11.35 11.35 0 0 0-5.919-5.929l-4.547-1.98h-3.537v24.995h10.105c.155 0 .299.072.402.186l1.959 2.371a.54.54 0 0 1 .114.33z"/><path fill="#9990FF" d="M300.17 603.158h5.671v1.031h-5.671z"/><path fill="#D4D0FF" d="M294.148 622.895h-29.037v-1.032h28.522v-24.995h-28.522v-1.031h29.037a.51.51 0 0 1 .516.516v26.026a.52.52 0 0 1-.516.516"/><path fill="#D4D0FF" d="M291.509 620.481h-5.568v-1.031h5.052v-20.18h-25.882v-1.031h26.398a.51.51 0 0 1 .515.516v21.211a.51.51 0 0 1-.515.515m-26.398-1.03h18.767v1.031h-18.767z"/><path fill="#9990FF" d="M298.107 628.958h-9.59a.51.51 0 0 1-.515-.516v-4.207a.51.51 0 0 1 .515-.515h9.59a.51.51 0 0 1 .516.515v4.207a.517.517 0 0 1-.516.516m-9.074-1.031h8.559v-3.176h-8.559z"/><path fill="#9990FF" d="M291.303 624.194h1.031v4.228h-1.031zm2.992 0h1.031v4.228h-1.031z"/><path fill="#D4D0FF" d="m285.084 612.435-1.571-.907 1.362-.803a.527.527 0 1 0-.536-.909l-1.876 1.106-2.828-1.633 2.827-1.633 1.877 1.106a.527.527 0 1 0 .536-.909l-1.362-.803 1.571-.907a.528.528 0 0 0-.528-.915l-1.571.908-.014-1.581a.528.528 0 1 0-1.056.009l.02 2.178-2.828 1.633v-3.265l1.896-1.072a.528.528 0 1 0-.519-.919l-1.377.778v-1.815a.527.527 0 0 0-1.055 0v1.815l-1.377-.778a.528.528 0 1 0-.519.919l1.896 1.072v3.265l-2.828-1.633.019-2.178a.527.527 0 0 0-.523-.532h-.005a.527.527 0 0 0-.527.523l-.015 1.581-1.571-.908a.528.528 0 0 0-.528.915l1.572.907-1.362.803a.528.528 0 1 0 .536.909l1.876-1.105 2.828 1.632-2.828 1.633-1.876-1.106a.528.528 0 1 0-.536.909l1.362.803-1.572.907a.528.528 0 0 0 .528.914l1.571-.907.015 1.581c.002.29.238.523.527.523h.005a.527.527 0 0 0 .523-.533l-.019-2.177 2.828-1.633v3.265l-1.896 1.072a.527.527 0 1 0 .519.919l1.377-.778v1.814a.527.527 0 1 0 1.055 0v-1.814l1.377.778a.528.528 0 0 0 .519-.919l-1.896-1.072v-3.265l2.828 1.633-.02 2.177a.527.527 0 0 0 .523.533h.005a.53.53 0 0 0 .528-.523l.014-1.581 1.572.907a.53.53 0 0 0 .721-.193.53.53 0 0 0-.194-.721"/><path fill="#fff" d="M272.844 656.802h-1.429v-8.16h3.115c1.853 0 2.936.938 2.936 2.545 0 1.094-.514 1.876-1.474 2.267l1.552 3.348h-1.563l-1.384-3.047h-1.753zm0-6.887v2.579h1.686c.904 0 1.44-.48 1.44-1.307 0-.814-.536-1.272-1.44-1.272zm11.285 6.887h-5.068v-8.16h5.068v1.318h-3.639v2.098h3.259v1.262h-3.259v2.165h3.639zm6.784 0h-5.068v-8.16h5.068v1.318h-3.639v2.098h3.26v1.262h-3.26v2.165h3.639zm6.182-3.337h-3.036v3.337h-1.429v-8.16h5.045v1.318h-3.616v2.221h3.036zm7.104 3.337h-5.068v-8.16h5.068v1.318h-3.639v2.098h3.259v1.262h-3.259v2.165h3.639zm3.145 0h-1.429v-8.16h3.115c1.853 0 2.935.938 2.935 2.545 0 1.094-.513 1.876-1.473 2.267l1.552 3.348h-1.563l-1.384-3.047h-1.753zm0-6.887v2.579h1.686c.904 0 1.44-.48 1.44-1.307 0-.814-.536-1.272-1.44-1.272z"/><rect width="325.511" height="119" x="25.5" y="563.5" stroke="#9990FF" rx="10.663"/><g clip-path="url(#k)"><rect width="252" height="51.974" x="156" y="125.763" fill="#2F3142" rx="8" transform="rotate(-15.127 156 125.763)"/><path fill="#F0F0F0" d="M178.227 146.674a13.988 13.988 0 1 0 27.007-7.3 13.988 13.988 0 0 0-27.007 7.3"/><path fill="#0052B4" d="M178.797 137.699a13.9 13.9 0 0 0-1.056 5.326l7.024-1.898zm25.017-1.722a13.9 13.9 0 0 0-3.595-4.069l-3.428 5.968zm-24.169 14.093a13.9 13.9 0 0 0 3.596 4.069l3.428-5.968zm17.409-19.98a13.9 13.9 0 0 0-5.326-1.056l1.899 7.024zm-10.649 25.866a13.9 13.9 0 0 0 5.327 1.056l-1.899-7.023zm-1.722-25.017a13.9 13.9 0 0 0-4.069 3.596l5.968 3.428zm14.093 24.169a13.9 13.9 0 0 0 4.069-3.596l-5.967-3.428zm-.081-10.188 5.968 3.428a14 14 0 0 0 1.056-5.327z"/><path fill="#D80027" d="m204.641 137.643-11.626 3.143-3.143-11.627a14.2 14.2 0 0 0-3.523.953l3.143 11.626-11.627 3.143a14.2 14.2 0 0 0 .953 3.523l11.626-3.143 3.143 11.627a14 14 0 0 0 3.523-.953l-3.143-11.626 11.627-3.143a14.2 14.2 0 0 0-.953-3.523"/><path fill="#D80027" d="m196.205 145.594 7.654 4.396q.302-.528.559-1.081l-6.553-3.764zm-7.045 1.904-4.397 7.655q.529.302 1.082.558l3.764-6.552zm-1.904-7.045-7.655-4.396q-.302.529-.559 1.081l6.553 3.764zm7.044-1.904 4.397-7.654a14 14 0 0 0-1.081-.559l-3.765 6.552z"/><path fill="#fff" d="m218.529 137.735-1.946-7.198 1.514-.409 1.92 7.105c.485 1.792 1.741 2.513 3.517 2.033 1.761-.476 2.462-1.743 1.982-3.52l-1.921-7.105 1.529-.413 1.946 7.198c.693 2.564-.514 4.597-3.14 5.307-2.641.714-4.704-.419-5.401-2.998m13.336.654-1.452.393-2.042-7.553 1.313-.355.468 1.117c.245-.995 1.064-1.763 2.13-2.052 1.993-.538 3.234.436 3.756 2.366l1.248 4.619-1.452.392-1.161-4.294c-.413-1.529-1.29-1.955-2.402-1.654-1.36.367-1.884 1.553-1.488 3.021zm5.616-11.546a.996.996 0 0 1-1.216-.698.987.987 0 0 1 .699-1.217.986.986 0 0 1 1.216.699.996.996 0 0 1-.699 1.216m1.816 9.537-2.042-7.553 1.452-.392 2.042 7.552zm5.691-1.539-1.452.393-1.712-6.333-1.482.401-.33-1.22 1.483-.401-.639-2.363 1.452-.393.639 2.364 1.482-.401.33 1.22-1.483.401zm6.02-1.428c-2.224.601-4.188-.592-4.822-2.939-.639-2.363.416-4.406 2.61-4.999 2.147-.58 3.953.523 4.558 2.762l.147.541-5.835 1.594c.538 1.561 1.611 2.216 3.047 1.828 1.127-.305 1.744-.969 1.757-1.9l1.359-.368c.068 1.722-.952 2.976-2.821 3.481m-1.883-6.717c-1.266.342-1.865 1.316-1.691 2.694l4.356-1.177c-.338-1.251-1.383-1.864-2.665-1.517m10.022 4.517c-2.193.593-3.964-.686-4.586-2.987-.626-2.317.258-4.379 2.498-4.984 1.158-.314 2.269-.067 3.029.722l-1.361-5.035 1.437-.389 3.073 11.368-1.298.351-.495-1.341c-.214 1.168-1.092 1.969-2.297 2.295m-.061-1.393c1.483-.4 2.098-1.743 1.672-3.319-.418-1.544-1.63-2.41-3.113-2.009-1.482.401-2.047 1.747-1.629 3.291.422 1.56 1.587 2.438 3.07 2.037m9.211-13.263 1.712 6.333 3.261-7.677 1.807-.489-2.456 5.752 5.537 5.399-1.761.476-4.433-4.321-1.342 3.13.694 2.564-1.514.41-3.019-11.168zm9.367-.576a.997.997 0 0 1-1.216-.699.986.986 0 0 1 .698-1.217.99.99 0 0 1 1.217.699 1 1 0 0 1-.699 1.217m1.816 9.536-2.042-7.553 1.452-.392 2.042 7.553zm5.011-1.354-1.452.392-2.041-7.553 1.313-.355.467 1.117c.245-.994 1.065-1.763 2.131-2.051 1.992-.539 3.233.435 3.755 2.366l1.249 4.618-1.452.392-1.161-4.293c-.413-1.53-1.291-1.955-2.403-1.655-1.359.368-1.884 1.554-1.487 3.021zm5.881-5.85c-.576-2.131.347-4.171 2.541-4.764 1.22-.33 2.312-.028 3.046.784l-.239-1.311 1.298-.351 1.958 7.244c.643 2.379-.415 4.289-2.732 4.916-2.054.555-3.773-.223-4.569-2.064l1.452-.392c.486 1.062 1.496 1.485 2.762 1.143 1.421-.384 2.097-1.562 1.709-2.998l-.409-1.514c-.256 1.014-1.103 1.807-2.292 2.128-2.147.581-3.953-.705-4.525-2.821m1.443-.423c.384 1.421 1.565 2.295 2.986 1.911 1.468-.397 2.08-1.689 1.679-3.172-.393-1.452-1.542-2.268-3.024-1.868-1.452.393-2.016 1.739-1.641 3.129m12.417 1.135c-2.193.593-3.964-.685-4.586-2.987-.626-2.317.258-4.379 2.498-4.984 1.158-.313 2.269-.067 3.029.722l-1.361-5.035 1.436-.388 3.074 11.368-1.298.35-.495-1.341c-.215 1.168-1.092 1.969-2.297 2.295m-.061-1.392c1.483-.401 2.097-1.744 1.672-3.32-.418-1.544-1.63-2.41-3.113-2.009-1.482.401-2.047 1.747-1.629 3.291.421 1.56 1.587 2.438 3.07 2.038m4.728-4.129c-.631-2.333.595-4.421 2.865-5.035 2.255-.609 4.366.577 4.997 2.909.63 2.333-.595 4.421-2.85 5.031-2.271.613-4.382-.573-5.012-2.905m1.467-.397c.426 1.576 1.727 2.401 3.194 2.004 1.452-.392 2.175-1.765 1.749-3.34-.426-1.576-1.742-2.397-3.194-2.004-1.467.397-2.175 1.765-1.749 3.34m10.477 1.229-1.452.392-2.042-7.553 1.297-.35.407.95c.194-.814.863-1.526 1.929-1.814 1.174-.317 2.167.044 2.808.882.1-1.038.853-1.872 2.027-2.189 1.729-.467 3.072.33 3.544 2.075l1.336 4.943-1.421.384-1.24-4.587c-.322-1.19-1.169-1.69-2.189-1.414-1.097.296-1.614 1.265-1.288 2.469l1.211 4.48-1.437.388-1.244-4.603c-.321-1.189-1.145-1.662-2.165-1.387-1.096.297-1.618 1.25-1.292 2.454z"/><path fill="#B6B0FF" d="M363.629 101.913c-.318-1.176.115-2.309 1.09-2.993-1.024-.143-1.733-.779-1.999-1.765-.413-1.527.616-2.922 2.562-3.448 1.92-.52 3.498.17 3.915 1.711.27 1-.035 1.91-.856 2.523 1.19.055 2.156.838 2.481 2.041.464 1.717-.658 3.253-2.82 3.837-2.176.589-3.906-.177-4.373-1.906m.329-5.006c.259.96 1.225 1.366 2.441 1.037 1.23-.332 1.836-1.149 1.58-2.095-.252-.932-1.183-1.319-2.413-.986-1.216.329-1.853 1.139-1.608 2.044m.942 4.56c.296 1.095 1.392 1.553 2.784 1.177 1.378-.373 2.094-1.321 1.798-2.415-.292-1.082-1.371-1.53-2.776-1.15-1.392.377-2.098 1.307-1.806 2.388m9.421-4.954-.973.263-.238-.878 2.051-3.412-4.392 1.188-.318-1.176 6.068-1.64.289 1.067-1.986 3.278c1.717-.247 3.277.535 3.752 2.292.534 1.973-.613 3.632-2.6 4.169-1.919.519-3.615-.284-4.163-2.311l1.311-.355c.343 1.271 1.328 1.802 2.558 1.47 1.27-.344 1.875-1.378 1.536-2.635-.318-1.175-1.341-1.74-2.895-1.32m9.071-5.034c.391 1.446-.354 2.765-1.801 3.156-1.432.387-2.741-.376-3.131-1.822-.395-1.46.351-2.778 1.783-3.165 1.446-.391 2.755.372 3.149 1.831m4.529-3.69-4.782 11.764-1.298.351 4.782-11.763zm-5.569 3.972c-.238-.879-.983-1.33-1.835-1.1-.838.227-1.254.992-1.017 1.87.234.865.98 1.317 1.817 1.09.838-.227 1.269-.995 1.035-1.86m8.974 3.1c.391 1.445-.369 2.767-1.801 3.154-1.433.388-2.755-.371-3.146-1.818-.394-1.46.369-2.768 1.801-3.155 1.433-.387 2.751.359 3.146 1.818Zm-1.055.284c-.237-.878-.969-1.333-1.82-1.103-.838.227-1.255.992-1.018 1.87.234.865.98 1.316 1.818 1.09.838-.227 1.254-.992 1.02-1.857"/></g><rect width="251" height="50.974" x="156.613" y="126.115" stroke="url(#l)" rx="7.5" transform="rotate(-15.127 156.613 126.115)"/><path fill="#252836" d="M489.5 254a4.5 4.5 0 0 1 4.5-4.5h104.25a4.5 4.5 0 0 1 4.5 4.5v32a4.5 4.5 0 0 1-4.5 4.5H494a4.5 4.5 0 0 1-4.5-4.5z"/><path fill="#766BF4" fill-rule="evenodd" d="M512.224 264.237a.74.74 0 0 0-.737-.737.74.74 0 0 0-.737.737v.915l-.183.043q-.663.166-1.216.553a3.1 3.1 0 0 0-.884.957c-.221.369-.332.848-.332 1.4 0 .443.074.848.221 1.143.148.331.369.589.59.81s.515.405.81.553c.295.147.59.258.921.368l.884.295c.222.074.443.184.627.295s.295.221.405.368a.74.74 0 0 1 .147.479c0 .221-.036.368-.11.516a.9.9 0 0 1-.295.331c-.11.074-.258.148-.442.185l-.078.016c-.15.03-.28.057-.438.057-.405 0-.773-.11-1.179-.294a2.8 2.8 0 0 1-.958-.737l-1.584 1.584c.442.479.995.81 1.658 1.068.465.181.948.289 1.436.338v1.283a.74.74 0 0 0 .737.737.74.74 0 0 0 .737-.737v-1.307q.284-.041.553-.129c.442-.111.848-.332 1.216-.59s.626-.626.847-1.032c.221-.405.332-.921.332-1.473 0-.516-.111-.921-.295-1.253a2.7 2.7 0 0 0-.737-.847 4.3 4.3 0 0 0-.994-.553c-.278-.111-.557-.201-.819-.286l-.25-.082a13 13 0 0 1-.626-.221c-.184-.074-.332-.148-.479-.221a1.1 1.1 0 0 1-.295-.295.67.67 0 0 1-.11-.405.87.87 0 0 1 .479-.774c.147-.074.294-.111.442-.147.147-.037.331-.037.479-.037.294 0 .626.073.958.221.331.147.589.368.81.626l1.511-1.731c-.442-.406-.958-.7-1.548-.922a6.3 6.3 0 0 0-1.474-.287z" clip-rule="evenodd"/><path fill="#fff" d="M526.539 276.673c-3.245 0-5.402-2.331-5.402-5.859 0-3.512 2.22-5.89 5.481-5.89 2.567 0 4.536 1.527 4.961 3.858h-1.654c-.425-1.48-1.701-2.378-3.355-2.378-2.299 0-3.811 1.733-3.811 4.394s1.512 4.395 3.811 4.395c1.67 0 2.993-.898 3.418-2.3h1.638c-.488 2.268-2.52 3.78-5.087 3.78m8.368-.189h-1.481v-11.576h1.481v5.071c.488-.834 1.417-1.401 2.614-1.401 1.969 0 2.914 1.244 2.914 3.213v4.709h-1.481v-4.379c0-1.559-.74-2.189-1.842-2.189-1.434 0-2.205 1.04-2.205 2.363zm11.138.205c-2.268 0-3.827-1.638-3.827-4.032 0-2.41 1.528-4.079 3.764-4.079 2.189 0 3.623 1.512 3.623 3.795v.552l-5.954.015c.11 1.623.961 2.521 2.426 2.521 1.149 0 1.905-.473 2.157-1.355h1.386c-.378 1.654-1.669 2.583-3.575 2.583m-.063-6.867c-1.291 0-2.11.772-2.299 2.126h4.441c0-1.276-.835-2.126-2.142-2.126m7.688 6.867c-1.654 0-2.631-.929-2.631-2.331 0-1.418 1.056-2.3 2.867-2.441l2.425-.189v-.221c0-1.291-.771-1.748-1.811-1.748-1.244 0-1.953.551-1.953 1.48h-1.291c0-1.606 1.323-2.661 3.307-2.661 1.906 0 3.197 1.008 3.197 3.087v4.835h-1.26l-.157-1.244c-.394.882-1.449 1.433-2.693 1.433m.425-1.15c1.402 0 2.252-.913 2.252-2.362v-.41l-1.969.158c-1.307.126-1.842.63-1.842 1.386 0 .819.598 1.228 1.559 1.228m5.972 4.41v-11.151h1.339l.11 1.386c.52-1.055 1.559-1.606 2.788-1.606 2.205 0 3.575 1.653 3.575 4.016 0 2.347-1.291 4.111-3.575 4.111-1.229 0-2.252-.52-2.756-1.465v4.709zm1.496-7.292c0 1.575.914 2.709 2.426 2.709s2.41-1.134 2.41-2.709c0-1.591-.898-2.725-2.41-2.725s-2.426 1.118-2.426 2.725m11.507 4.032c-2.268 0-3.827-1.638-3.827-4.032 0-2.41 1.528-4.079 3.764-4.079 2.19 0 3.623 1.512 3.623 3.795v.552l-5.954.015c.111 1.623.961 2.521 2.426 2.521 1.15 0 1.906-.473 2.158-1.355h1.386c-.378 1.654-1.67 2.583-3.576 2.583m-.063-6.867c-1.291 0-2.11.772-2.299 2.126h4.441c0-1.276-.834-2.126-2.142-2.126m4.883 4.441h1.417c0 .788.599 1.26 1.575 1.26 1.04 0 1.638-.425 1.638-1.134 0-.519-.252-.834-1.055-1.039l-1.354-.315c-1.371-.331-2.016-1.008-2.016-2.142 0-1.418 1.197-2.315 2.898-2.315 1.685 0 2.787.945 2.819 2.409h-1.418c-.031-.771-.551-1.26-1.449-1.26-.929 0-1.449.41-1.449 1.119 0 .519.378.866 1.134 1.055l1.355.331c1.307.315 1.953.913 1.953 2.063 0 1.465-1.26 2.394-3.087 2.394-1.811 0-2.961-.961-2.961-2.426m10.099 2.237h-1.48v-6.458h-1.512v-1.244h1.512v-2.41h1.48v2.41h1.512v1.244h-1.512z"/><path stroke="url(#m)" d="M489.5 254a4.5 4.5 0 0 1 4.5-4.5h104.25a4.5 4.5 0 0 1 4.5 4.5v32a4.5 4.5 0 0 1-4.5 4.5H494a4.5 4.5 0 0 1-4.5-4.5z"/><g clip-path="url(#n)"><path fill="#777C81" d="M628.056 264.124a.1.1 0 0 0-.097-.124h-4.857a.1.1 0 0 0-.097.075l-1.972 7.562a.1.1 0 0 0 .096.126h2.445a.1.1 0 0 1 .097.122l-1.234 5.247c-.024.1.1.166.17.091l8.362-9.005a.1.1 0 0 0-.073-.168h-3.693a.1.1 0 0 1-.097-.124z"/><path stroke="#777C81" stroke-linecap="round" stroke-width="1.35" d="m624.71 266.362-.675 2.7"/></g><path fill="#777C81" d="M641.796 270.895h-4.26v4.605h-1.47v-10.845h6.54v1.35h-5.07v3.555h4.26zm4.12 4.785c-1.575 0-2.505-.885-2.505-2.22 0-1.35 1.005-2.19 2.73-2.325l2.31-.18v-.21c0-1.23-.735-1.665-1.725-1.665-1.185 0-1.86.525-1.86 1.41h-1.23c0-1.53 1.26-2.535 3.15-2.535 1.815 0 3.045.96 3.045 2.94v4.605h-1.2l-.15-1.185c-.375.84-1.38 1.365-2.565 1.365m.405-1.095c1.335 0 2.145-.87 2.145-2.25v-.39l-1.875.15c-1.245.12-1.755.6-1.755 1.32 0 .78.57 1.17 1.485 1.17m5.088-1.215h1.35c0 .75.57 1.2 1.5 1.2.99 0 1.56-.405 1.56-1.08 0-.495-.24-.795-1.005-.99l-1.29-.3c-1.305-.315-1.92-.96-1.92-2.04 0-1.35 1.14-2.205 2.76-2.205 1.605 0 2.655.9 2.685 2.295h-1.35c-.03-.735-.525-1.2-1.38-1.2-.885 0-1.38.39-1.38 1.065 0 .495.36.825 1.08 1.005l1.29.315c1.245.3 1.86.87 1.86 1.965 0 1.395-1.2 2.28-2.94 2.28-1.725 0-2.82-.915-2.82-2.31m9.619 2.13h-1.41v-6.15h-1.44v-1.185h1.44v-2.295h1.41v2.295h1.44v1.185h-1.44zm6.022.18c-2.16 0-3.645-1.56-3.645-3.84 0-2.295 1.455-3.885 3.585-3.885 2.085 0 3.45 1.44 3.45 3.615v.525l-5.67.015c.105 1.545.915 2.4 2.31 2.4 1.095 0 1.815-.45 2.055-1.29h1.32c-.36 1.575-1.59 2.46-3.405 2.46m-.06-6.54c-1.23 0-2.01.735-2.19 2.025h4.23c0-1.215-.795-2.025-2.04-2.025m4.65 4.23h1.35c0 .75.57 1.2 1.5 1.2.99 0 1.56-.405 1.56-1.08 0-.495-.24-.795-1.005-.99l-1.29-.3c-1.305-.315-1.92-.96-1.92-2.04 0-1.35 1.14-2.205 2.76-2.205 1.605 0 2.655.9 2.685 2.295h-1.35c-.03-.735-.525-1.2-1.38-1.2-.885 0-1.38.39-1.38 1.065 0 .495.36.825 1.08 1.005l1.29.315c1.245.3 1.86.87 1.86 1.965 0 1.395-1.2 2.28-2.94 2.28-1.725 0-2.82-.915-2.82-2.31m9.618 2.13h-1.41v-6.15h-1.44v-1.185h1.44v-2.295h1.41v2.295h1.44v1.185h-1.44z"/><g fill="#443BB0" clip-path="url(#o)"><path d="M623.046 310.735a3.78 3.78 0 0 0-2.232 1.553 3.85 3.85 0 0 0-4.421-2.417 3.77 3.77 0 0 0-2.407 1.841 3.71 3.71 0 0 0-5.983.264l-2.132-6.132a3.85 3.85 0 0 0-4.464-2.537 3.76 3.76 0 0 0-2.858 3.337 3.75 3.75 0 0 0 .196 1.54l4.433 12.752a.749.749 0 1 0 1.416-.493l-4.432-12.751a2.25 2.25 0 0 1 .149-1.816 2.22 2.22 0 0 1 1.452-1.111 2.34 2.34 0 0 1 2.69 1.572l6.114 17.588a.754.754 0 0 0 .955.462.75.75 0 0 0 .462-.954l-2.997-8.623a2.25 2.25 0 0 1 .149-1.816 2.23 2.23 0 0 1 1.452-1.112 2.34 2.34 0 0 1 2.693 1.572l2.955 8.501a.75.75 0 1 0 1.417-.493l-2.505-7.206a2.24 2.24 0 0 1 .149-1.815 2.23 2.23 0 0 1 1.452-1.112 2.34 2.34 0 0 1 2.692 1.571l2.462 7.085a.752.752 0 0 0 1.384.08.75.75 0 0 0 .033-.573l-1.52-4.372a2.26 2.26 0 0 1 .756-2.528c.25-.192.538-.328.845-.4a2.34 2.34 0 0 1 2.692 1.572l3.448 9.918a14.27 14.27 0 0 1-8.781 18.139l-.242.084a14.28 14.28 0 0 1-14.075-2.747l-11.072-9.712a2.414 2.414 0 0 1-.325-3.278 2.42 2.42 0 0 1 3.246-.56l8.635 5.627a.75.75 0 0 0 .868-.042.75.75 0 0 0 .247-.832l-2.463-7.084a.749.749 0 1 0-1.416.493l1.742 5.011-6.794-4.428a3.917 3.917 0 0 0-4.731 6.22l11.078 9.711a15.77 15.77 0 0 0 15.553 3.038l.241-.084a15.77 15.77 0 0 0 9.706-20.049l-3.448-9.918a3.85 3.85 0 0 0-4.464-2.536"/><path d="M598.581 314.564a.751.751 0 0 0 .173-1.331 6.68 6.68 0 0 1-2.586-3.359 6.75 6.75 0 1 1 13.11-1.75.753.753 0 0 0 .698.783.75.75 0 0 0 .798-.68 8.24 8.24 0 0 0-.813-4.19 8.245 8.245 0 0 0-11.023-3.808 8.26 8.26 0 0 0-4.622 6.828 8.25 8.25 0 0 0 3.598 7.42.8.8 0 0 0 .323.123.76.76 0 0 0 .344-.036"/></g><g filter="url(#p)"><rect width="68" height="68" x="114" y="389.566" fill="url(#q)" rx="34" transform="rotate(-16.723 114 389.566)"/><g fill="#fff" clip-path="url(#r)"><path d="M169.005 411.41c-.102.19-.146.397-.203.602-.07.27-.174.53-.234.803q-.344 1.033-.68 2.069c-.024.074-.04.15-.088.215-.177.359-.286.745-.445 1.112l-.049.109c-.43 1.056-1.27 1.63-2.312 1.965-.283.091-.567.18-.855.254-.233.061-.298-.003-.24-.233.052-.212.13-.417.182-.628.089-.492.279-.954.422-1.43.319-1.059.667-2.11.982-3.17.067-.091.047-.221.13-.305.182-.33.258-.699.369-1.052.224-.712.445-1.426.672-2.138.06-.19.021-.304-.132-.425a59 59 0 0 1-.99-.806c-.079-.064-.147-.152-.259-.166-.354-.224-.648-.523-.976-.778-.151-.118-.298-.241-.455-.35-.965-.792-1.939-1.576-2.901-2.372-.405-.348-.802-.709-1.246-1.011-.149-.135-.312-.252-.46-.387-.078-.072-.133-.148.02-.213 1.078-.456 2.166-.766 3.335-.335.483.178.887.484 1.296.776 1.185.844 2.295 1.786 3.439 2.684.021.016.037.037.059.052.345.255.619.355.801-.241.044-.142.095-.281.14-.422.144-.38.259-.771.382-1.159.108-.348.245-.687.342-1.038.091-.13.102-.291.171-.429.222-.596.414-1.203.671-1.786.318-.892.932-1.482 1.802-1.845.496-.207 1.007-.336 1.526-.451.205-.023.159.101.127.215-.11.387-.229.77-.348 1.154-.721 2.31-1.448 4.618-2.156 6.931-.074.242-.143.486-.231.722-.085.224-.015.374.168.515.76.588 1.498 1.204 2.24 1.814 1.577 1.299 3.166 2.581 4.745 3.878.047.039.091.081.14.119.108.083.091.145-.02.218-.202.135-.434.181-.658.252a6 6 0 0 1-1.646.249 2.74 2.74 0 0 1-1.404-.364 10.4 10.4 0 0 1-1.545-1.032c-.083-.12-.203-.199-.32-.282a.4.4 0 0 1-.057-.04c-.105-.091-.205-.189-.339-.237-.058-.041-.117-.081-.161-.138a1.8 1.8 0 0 0-.489-.388c-.363-.252-.698-.537-1.042-.813-.157-.151-.332-.279-.506-.409-.349-.258-.513-.223-.714.165m-10.618-4.873c.063-.131.12-.267.224-.377.106.064.103.17.129.257q1.52 5.065 3.043 10.128c.108.362.176.731.213 1.104.074.734-.272 1.258-.848 1.661-.371.259-.796.395-1.223.527-.153.046-.234.001-.267-.151-.01-.051-.029-.101-.044-.15-1.012-3.368-2.02-6.737-3.039-10.103-.183-.603-.059-1.09.413-1.511.423-.378.868-.735 1.239-1.17.07-.06.112-.14.16-.215m-2.622-.145c-.129-.359-.118-.731-.102-1.103.026-.1.027-.207.074-.302v.001q.089-.29.281-.523l-.001.001c.051-.092.141-.149.208-.227l-.002.001c.422-.367.936-.555 1.449-.743.134-.05.214-.005.256.133.152.492.255.989.2 1.508-.157.601-.536 1.05-.991 1.446-.21.183-.428.357-.643.535q-.027.04-.071.017c-.033-.174.106-.246.208-.332.353-.301.702-.604.987-.975.295-.383.408-.805.317-1.28-.039-.207-.039-.418-.083-.624-.037-.171-.122-.23-.301-.179a3.5 3.5 0 0 0-1.031.502c-.541.377-.753.922-.695 1.575.023.252.051.503.121.75.019.071.093.203-.089.205-.028-.129-.099-.248-.092-.386m-11.088 10.192.105 1.978q.033.572.07 1.145c.028.361.049.722.05 1.084l.001-.001c.023.399.072.797.018 1.196-.033.055-.007.109.004.163-.016.094.011.193-.032.285l-.012.112c-.011.079.011.165-.045.235l-.04.225c-.01.059-.015.124-.103.074-.066-.098-.036-.203-.016-.304.1-.51.107-1.023.082-1.539-.068-1.429-.118-2.86-.195-4.289-.006-.114-.014-.227.041-.334a.06.06 0 0 1 .072-.03"/><path d="M165.282 408.149c.5.317.941.705 1.381 1.097.068.061.09.145.061.238l-1.032 3.264c-.007.022-.036.037-.054.055-.032-.029-.042-.061-.017-.099l1.006-3.174c.039-.123.023-.219-.081-.303q-.614-.49-1.226-.984c-.039-.02-.049-.053-.038-.094m-10.848 8.201.097 2.421c.003.069.014.138.022.207.027.273.038.547.02.821-.037.076.006.145.02.215-.038.134.094.287-.047.408a.2.2 0 0 1-.063-.057c-.095-.197-.065-.413-.069-.618-.026-1.054-.082-2.108-.1-3.162-.002-.108-.038-.231.089-.303q.05.018.031.068"/><path d="M154.588 420.675c.048.716.045.703-.622.917a3.95 3.95 0 0 1-1.575.173l-.209-.084c.072-.112.183-.087.284-.073.624.089 1.214-.061 1.797-.258.136-.046.196-.13.19-.273-.006-.148-.007-.296-.012-.445-.004-.099-.032-.214.095-.27l.027.062c.042.058.081.115.037.19zm1.177-14.283.128.409c.192.131.124.359.199.539.143-.026.174-.225.336-.21l.067-.009-.443.569c-.14-.46-.284-.862-.287-1.298m-13.843 12.332c-.076-.147-.005-.32-.087-.466-.008-.057-.034-.114.006-.17.085-.124-.013-.269.045-.397.081.034.112.108.118.185.02.247.029.496.005.744-.003.051-.018.103-.087.104m12.526-3.763c-.073.105.019.24-.063.343-.167-.211-.132-.444-.072-.679q.029-.037.075-.026l.038.265zm3.939-8.424c-.009.104-.049.186-.161.214.029-.091.072-.17.161-.214m8.904 9.721c.027.169-.129.275-.148.429-.494.892-1.327 1.331-2.24 1.655-.296.105-.595.207-.908.249-.075.011-.204.046-.149-.116.096-.28.143-.576.288-.839.004.249-.111.47-.176.702-.041.147-.023.194.14.144.615-.193 1.255-.327 1.812-.666.44-.268.845-.586 1.094-1.06.088-.17.191-.332.287-.498m.476-1.18c-.103.39-.219.775-.443 1.117.114-.386.223-.773.443-1.117m4.024-2.245a1.7 1.7 0 0 1-.504-.405.98.98 0 0 1 .504.405m.504.393c-.152-.05-.258-.162-.364-.274.174.022.276.137.364.274"/><path d="M172.65 413.51a.87.87 0 0 1-.357-.285.51.51 0 0 1 .357.285m-27.927 9.589-.08.292c-.527 1.045-1.465 1.495-2.536 1.752-.088.021-.171.047-.231-.052l-1.339-2.213c-.827-1.367-1.669-2.724-2.509-4.081-.32-.566-.673-1.113-1.015-1.668-.669-1.085-1.33-2.175-2.003-3.258-.553-.892-1.092-1.793-1.652-2.682-.157-.249-.143-.283.134-.35.388-.095.772-.209 1.178-.217.228-.004.449.047.674.042.906.128 1.497.682 1.952 1.427q.756 1.238 1.516 2.47l.695 1.211c.47.769.93 1.543 1.401 2.312.245.398.491.797.721 1.206a.9.9 0 0 0 .205.267q.023.029.024.067c.026-.042.046-.086.068-.131.055-.257-.012-.513-.004-.769h-.001c.032-.346.052-.691-.035-1.033l-.042-1.41c-.047-1.22-.075-2.441-.132-3.66.007-.481-.033-.961.029-1.444.052-.404.112-.804.243-1.191l.253-.502.593-.564c.506-.291 1.036-.515 1.618-.599.4.017.808-.038 1.191.133.702.263 1.185.79 1.599 1.38.699.999 1.289 2.068 1.932 3.102.685 1.102 1.342 2.22 2.047 3.308.08.123.123.272.257.356.057.018.082-.018.102-.062l-.009-.097c.084-.504-.006-1.007-.015-1.51-.012-.658-.048-1.317-.071-1.974-.004-.095-.045-.186-.025-.281-.043-1-.08-2.001-.129-3-.026-.513-.01-1.026-.076-1.537.006-.269-.005-.542.022-.809.119-1.173.808-1.912 1.841-2.378.222-.1.458-.171.686-.257.213-.079.273.004.278.219.022.853.061 1.707.093 2.56.018.729.033 1.458.054 2.187q.052 1.877.108 3.755c-.02.398.036.797.012 1.196-.009.232-.005.463.039.692-.045.079.002.149.018.223-.004.254.019.508.004.761-.05.354-.002.708.004 1.061.013.763.046 1.526.076 2.288.009.242.033.484.049.725-.062.242.003.484.005.726.002.181-.03.28-.227.338-.537.16-1.069.321-1.641.287-.163-.01-.323-.084-.49-.032a2.2 2.2 0 0 1-1.318-.753c-.683-.82-1.2-1.749-1.741-2.662-.03-.052-.05-.112-.105-.146-.236-.464-.524-.899-.785-1.348q-.516-.886-1.044-1.768-.496-.835-.998-1.666c-.247-.407-.485-.82-.741-1.221a1.7 1.7 0 0 0-.291-.365c-.164-.147-.33-.175-.51-.033l.002-.002c-.185.164-.18.393-.179.606.006.709.056 1.418.086 2.126.02.492.051.983.064 1.476.006.224.05.448.01.672q.101 2.343.204 4.685c.022.506.015 1.01-.085 1.508-.022.101-.062.203-.028.309"/><path d="M135.345 410.665c-.336.049-.671-.025-1.011.013-.333.036-.629.202-.965.224-.132.01-.063.143-.024.209q.336.559.681 1.11c.399.641.803 1.28 1.2 1.923.325.524.639 1.054.963 1.579l1.809 2.924c.027.043.037.097.055.146q-.011.043-.043.013l-1.822-2.945c-.031-.052-.07-.099-.105-.148q-.594-.984-1.191-1.965c-.536-.877-1.071-1.755-1.619-2.624-.129-.205-.062-.258.134-.31.387-.105.781-.177 1.177-.237.253.033.516-.011.761.088"/><path d="m138.01 418.806.043-.013q.503.804 1.003 1.611.694 1.13 1.391 2.26a.6.6 0 0 1 .09.214c-.293-.357-.499-.77-.741-1.161-.599-.968-1.191-1.941-1.786-2.911m13.519-2.094c-.313-.255-.451-.633-.663-.957-.42-.637-.806-1.297-1.202-1.95-.478-.787-.936-1.586-1.434-2.362-.449-.7-.837-1.44-1.395-2.07-.342-.387-.751-.671-1.195-.921l.097-.014.461.241c.923.713 1.473 1.715 2.066 2.683l2.74 4.465c.145.237.264.492.458.698q.002.023.015.042.084.054.052.145m4.9-9.582c-.124.104-.197.26-.363.354-.116-.219-.067-.473-.172-.683-.009-.347-.123-.676-.151-1.022-.055-.678.304-1.461 1.055-1.78.287-.122.551-.295.862-.364.112-.025.194-.024.218.104.105.56.277 1.118.065 1.69-.134.364-.407.625-.661.9-.267.287-.618.482-.853.801m-11.797 9.467-.099-1.944c-.034-.675-.073-1.35-.098-2.025a4.4 4.4 0 0 1 .031-.651c.012-.11.057-.221.186-.261l-.038.108c-.14.222-.116.47-.105.711.053 1.244.114 2.489.171 3.733.005.105-.001.21-.002.315zm9.713-1.986c-.037-.398-.073-.796-.012-1.196.062.392.038.788.055 1.182z"/><path d="M144.649 411.718c.159-.185.327-.153.5-.021.226.175.359.425.502.661.583.965 1.153 1.938 1.73 2.907l1.586 2.659c.035.059.05.13.074.195q.045.027.012.067l-.065-.047a16 16 0 0 0-.774-1.304c-.434-.744-.865-1.491-1.306-2.232-.481-.809-.972-1.61-1.46-2.414a4 4 0 0 0-.19-.282c-.154-.215-.348-.311-.609-.189m-2.916.875c.038.981.08 1.961.113 2.942.008.247.06.497-.002.745l-.056-.247a.64.64 0 0 0-.006-.336l-.089-2.859c-.002-.104.008-.207.012-.309q.05.017.028.064"/><path d="m141.733 412.594-.029-.064c-.096-.753-.016-1.495.146-2.232q.015-.076.028-.153l.107-.159c-.093.504-.227 1.002-.236 1.518zm7.319 5.593-.012-.067c.25.271.398.609.584.92.355.597.724 1.183 1.159 1.727.036.046.053.107.08.162-.36-.327-.609-.74-.866-1.143a21 21 0 0 1-.945-1.599m2.405-5.511c.111.364.067.743.09 1.114.051.815.071 1.632.094 2.449.001.06.079.184-.073.202-.026-.415.003-.833-.061-1.246a31 31 0 0 0-.091-2.494.2.2 0 0 1 .041-.025m2.949 3.612c-.039-.254-.059-.507-.005-.761.062.273.048.548.033.824zm-12.54 3.333c-.31-.246-.44-.619-.64-.938-.56-.887-1.085-1.797-1.626-2.696a.6.6 0 0 1-.092-.213l.142.138c.024.068.038.141.105.184.059.133.123.264.228.369.172.316.35.629.558.923.115.23.232.459.402.655.073.209.207.381.332.557.13.258.271.511.45.74l.113.179q.058.039.028.102m.056-.897c.053.27.086.542.029.817-.043-.022-.046-.059-.038-.1.018-.238-.056-.479.009-.717"/></g></g><path stroke="url(#s)" stroke-linecap="round" stroke-linejoin="round" stroke-width="1.5" d="M362.727 654.665c17.085 2.963 66.989-12.958 79.248-86.305 10.344 21.316 27.172 48.64 11.733-12.593m-90.981 98.898c4.857-.34 15.908-3.496 21.249-13.394m-21.249 13.394c5.531 1.71 17.813 7.181 22.69 15.389"/><path stroke="url(#t)" stroke-linecap="round" stroke-linejoin="round" stroke-width="1.5" d="M497.949 187.634c5.989-16.273 12.307-68.227-57.638-93.483 22.83-6.34 52.736-17.977-10.275-13.808m67.913 107.291c.54-4.84-.576-16.278-9.352-23.312m9.352 23.312c2.677-5.133 10.269-16.231 19.221-19.551"/><defs><clipPath id="b"><rect width="252" height="51.974" x="79.838" y="80.157" fill="#fff" rx="8" transform="rotate(-15 79.838 80.157)"/></clipPath><clipPath id="r"><path fill="#fff" d="m130.023 405.472 44.501-13.37 8.153 27.135-44.501 13.37z"/></clipPath><clipPath id="o"><path fill="#fff" d="m580.013 306.765 45.339-15.76 15.76 45.338-45.338 15.761z"/></clipPath><clipPath id="n"><path fill="#fff" d="M616.375 259.5h18v18h-18z"/></clipPath><clipPath id="k"><rect width="252" height="51.974" x="156" y="125.763" fill="#fff" rx="8" transform="rotate(-15.127 156 125.763)"/></clipPath><clipPath id="i"><rect width="58.605" height="58.605" x="158.953" y="585.198" fill="#fff" rx="2.986"/></clipPath><clipPath id="g"><rect width="58.605" height="58.605" x="55.698" y="585.198" fill="#fff" rx="2.986"/></clipPath><clipPath id="d"><path fill="#fff" d="M368.529 329.818h63.851v76h-63.851z"/></clipPath><clipPath id="a"><rect width="276" height="203.543" x="65.141" y="71.672" fill="#fff" rx="12" transform="rotate(-15 65.14 71.672)"/></clipPath><clipPath id="c"><rect width="252" height="51.595" x="112.953" y="203.745" fill="#fff" rx="8" transform="rotate(-15 112.953 203.745)"/></clipPath><linearGradient id="t" x1="429" x2="515" y1="81.5" y2="199" gradientUnits="userSpaceOnUse"><stop stop-color="#443BB0" stop-opacity="0"/><stop offset="1" stop-color="#443BB0"/></linearGradient><linearGradient id="s" x1="452.573" x2="366" y1="555.079" y2="652" gradientUnits="userSpaceOnUse"><stop stop-color="#443BB0" stop-opacity="0"/><stop offset="1" stop-color="#443BB0"/></linearGradient><linearGradient id="q" x1="175.271" x2="121.438" y1="444.816" y2="401.962" gradientUnits="userSpaceOnUse"><stop stop-color="#443BB0"/><stop offset="1" stop-color="#7267F4"/></linearGradient><linearGradient id="m" x1="603.474" x2="512.908" y1="264.5" y2="260.237" gradientUnits="userSpaceOnUse"><stop stop-color="#9990FF"/><stop offset="1" stop-color="#9990FF" stop-opacity="0"/></linearGradient><linearGradient id="l" x1="406.905" x2="357.789" y1="144.113" y2="143.784" gradientUnits="userSpaceOnUse"><stop stop-color="#766BF4" stop-opacity=".38"/><stop offset="1" stop-color="#766BF4" stop-opacity="0"/></linearGradient><linearGradient id="e" x1="400.5" x2="400" y1="205" y2="524" gradientUnits="userSpaceOnUse"><stop stop-color="#9990FF"/><stop offset="1" stop-color="#9990FF" stop-opacity="0"/></linearGradient><filter id="p" width="108.69" height="108.69" x="102" y="361" color-interpolation-filters="sRGB" filterUnits="userSpaceOnUse"><feFlood flood-opacity="0" result="BackgroundImageFix"/><feColorMatrix in="SourceAlpha" result="hardAlpha" values="0 0 0 0 0 0 0 0 0 0 0 0 0 0 0 0 0 0 127 0"/><feOffset dy="3"/><feGaussianBlur stdDeviation="6"/><feComposite in2="hardAlpha" operator="out"/><feColorMatrix values="0 0 0 0 0.145098 0 0 0 0 0.156863 0 0 0 0 0.211765 0 0 0 0.2 0"/><feBlend in2="BackgroundImageFix" result="effect1_dropShadow_1_34"/><feBlend in="SourceGraphic" in2="effect1_dropShadow_1_34" result="shape"/></filter><filter id="f" width="120" height="120" x="25" y="565.791" color-interpolation-filters="sRGB" filterUnits="userSpaceOnUse"><feFlood flood-opacity="0" result="BackgroundImageFix"/><feColorMatrix in="SourceAlpha" result="hardAlpha" values="0 0 0 0 0 0 0 0 0 0 0 0 0 0 0 0 0 0 127 0"/><feOffset dy="2.791"/><feGaussianBlur stdDeviation="5.581"/><feComposite in2="hardAlpha" operator="out"/><feColorMatrix values="0 0 0 0 0.184314 0 0 0 0 0.192157 0 0 0 0 0.258824 0 0 0 0.1 0"/><feBlend in2="BackgroundImageFix" result="effect1_dropShadow_1_34"/><feBlend in="SourceGraphic" in2="effect1_dropShadow_1_34" result="shape"/></filter></defs></svg>